<svg xmlns="http://www.w3.org/2000/svg" width="385" height="340" xmlns:xlink="http://www.w3.org/1999/xlink"><defs><path id="a" d="M170.5 58.93S160 44.78 160 29.47s9.94-27.63 9.94-27.63V.74H31C14.1.74.3 13.07.3 28.14V33C.3 48.06 14.1 60.4 31 60.4h138.92l.6-.38v-1.1z"/><linearGradient id="c" x1="0%" y1="50%" y2="50%"><stop offset="0%" stop-color="#E0F0EB"/><stop offset="100%" stop-color="#C0E4EF"/></linearGradient></defs><g fill="none"><path fill="#212B53" fill-rule="nonzero" d="M132.62 156.54s17.12-79.26-32-112.67C16.54 102 74 184.57 74 184.57l58.62-28.03z"/><path fill="#00666A" fill-rule="nonzero" d="M100.6 43.87l-.86.6 3.8 95.48-46.44-37.33c-.16.64-.3 1.3-.43 1.94l47 37.75 1.1 27.56 1.74-.83-2.18-54.92 27.94-20.3c-.14-.63-.28-1.26-.44-1.9l-27.6 20.1-2.7-67.45c-.3-.22-.6-.44-.9-.65v-.03z"/><path fill="#63C1C5" fill-rule="nonzero" d="M109.9 141S73.8 68.6 17 66.7c-35.38 58.58 23.94 108 23.94 108l67.56 20.92 1.4-54.62z"/><path fill="#00666A" fill-rule="nonzero" d="M74.08 93.54L61 126.92 18.3 66.78 17 66.7c-.14.24-.26.47-.4.7l22.82 32.2L6.3 96.15c0 .3-.08.62-.12.93l-.1.84 34.7 3.65 38.13 53.68L20.57 151c.42.64.83 1.26 1.25 1.88l58.44 4.25 27.07 38.12 1.15.35v-1.76l-46.22-65.18 13.25-33.8-1.4-1.32z"/><path fill="#FFD247" fill-rule="nonzero" d="M93.92 176.22S34.4 144.4 0 173.92c14.28 91.47 131.62 79.77 131.62 79.77l-37.7-77.48z"/><path fill="#FFF" fill-rule="nonzero" d="M0 173.94c.06.35.12.7.17 1l83.7 36.77-44.07 23.15c.6.36 1.18.72 1.78 1.07L86 212.66 118.64 227l-1.2-2.47-63.65-28-13.92-35.12h-1.93l13.53 34.2-50.7-22.3-.78.63z"/><path fill="#212B53" fill-rule="nonzero" d="M267.84 200.72s.72-64.1 44.46-81.23c54.6 59.6-4.17 113.12-4.17 113.12l-40.3-31.9z"/><path fill="#00666A" fill-rule="nonzero" d="M312.3 119.5l.56.6-19.7 72.9 42.36-20.62v1.57L292.7 194.8l-5.7 21-1.2-.95 11.33-42-18-20.56c.22-.47.44-.93.67-1.38l17.74 20.3 13.9-51.52.83-.34.03.13z"/><path fill="#63C1C5" fill-rule="nonzero" d="M290.06 192s51.4-38 92.14-18.93c3.88 54-55.64 67.44-55.64 67.44l-55.1-9.53 18.6-38.97z"/><path fill="#00666A" fill-rule="nonzero" d="M332.33 171.4l-2.78 28.22 51.68-27 1 .43v.63l-27.67 14.48 24.58 9.45c-.08.24-.17.47-.26.7l-.24.62L352.9 189l-46.13 24.12 42.62 18-1.56.87-42.7-18-32.74 17.1-.93-.17.6-1.25 56-29.28 2.8-28.56 1.46-.43z"/><path fill="#FFD247" fill-rule="nonzero" d="M288.66 222.52s53.35-1 67 32.12c-42.9 59.3-121.34 8.9-121.34 8.9l54.34-41.02z"/><path fill="#FFF" fill-rule="nonzero" d="M355.62 254.64c-.16.23-.33.45-.5.68L283 251.15l22.74 32.1-1.64.1-22.9-32.3-28.2-1.63 1.73-1.3 54.87 3.16L332 231.5l1.36.67-21.8 19.22 43.7 2.52c.1.24.22.47.32.72h.04z"/><path fill="#F8F8F8" fill-rule="nonzero" d="M325.13 278.7c-13.92-5.16-256.44 0-256.44 0-12.46 0-23.9 13.94-23.9 26.4s11.44 26.36 23.9 26.36c0 0 237.12 10 256.55.3-3.3-21.17-2.83-40.34-.12-53.05z"/><path fill="#63C1C5" fill-rule="nonzero" d="M50.1 283.54h273.6v1.24H50.1zm273.17 7.88H45.57v1.25H323c.06-.43.16-.84.27-1.25zm-281.2 11.2h280.6v1.25H42.06zm0 5.6h280.6v1.25H42.06zm281.37 9.03H44.74v1.25h278.88c-.07-.42-.14-.83-.18-1.25zm1.37 10.9H52.1c.28.4.54.8.78 1.24h272.2c-.06-.4-.18-.84-.25-1.26z"/><path fill="#043C5E" fill-rule="nonzero" d="M68.7 331.46c-12.46 0-23.9-13.92-23.9-26.37 0-12.46 11.44-26.4 23.9-26.4 0 0 241.55-5.14 256.34 0 .62-3.23 1.1-5.13 1.1-5.13h-256c-17.4.05-31.5 14.15-31.54 31.55.05 17.4 14.15 31.5 31.55 31.55 0 0 243.56 5.6 256 0 0-.48-.4-2.23-.93-4.88-19.67 9.6-256.53-.34-256.53-.34z"/><rect width="251.85" height="71.82" x="56.47" y="202.7" fill="#01898C" fill-rule="nonzero" rx="16.98"/><path fill="#043C5E" fill-rule="nonzero" d="M203.86 204.24c-13.5 35.15 1.5 70.3 1.5 70.3h30.93s-11.32-40.18 1.83-70.3h-34.27z"/><g transform="translate(128 141)"><mask id="b"><use xlink:href="#a"/></mask><use fill="#FFF" fill-rule="nonzero" xlink:href="#a"/><path fill="#63C1C5" fill-rule="nonzero" d="M38.6 7.1h273.6v1.23H38.6zM311.76 15H34.06v1.24h277.4c.1-.45.2-.87.3-1.24zM30.56 26.17h280.6v1.24H30.55zm0 5.6h280.6V33H30.55zm9.57 5.6h273.6v1.24H40.13zm273.16 7.88H35.6v1.25H313c.08-.43.18-.84.3-1.25zm-281.2 7.7h280.58v1.24H32.1zm0 9.1h280.58v1.26H32.1z" mask="url(#b)"/></g><path fill="#F7A605" fill-rule="nonzero" d="M239.5 142.34h59.88v-4.73H195v4.74h17.14c-1.8 14.53-6 30-10.63 43.64-.22 1.6-.5 3.17-.65 4.77-.1 1-.16 1.92-.2 2.88a36.73 36.73 0 0 1 6.22 6.1H195v4.72h104.38v-4.73H237.8a21.66 21.66 0 0 1-19.52-12.14 41.15 41.15 0 0 1-4.18-19.23 31.75 31.75 0 0 1 2.17-10.53 24.86 24.86 0 0 1 23.24-15.48z"/><path fill="#F18813" fill-rule="nonzero" d="M209 173.74v-5.42c.05-16.94 13.77-30.66 30.7-30.7H92.3c-16.93.04-30.65 13.76-30.7 30.7v5.42c.04 16.94 13.77 30.67 30.7 30.7h147.42c-16.95-.03-30.68-13.75-30.72-30.7z"/><path fill="#FFF" fill-rule="nonzero" d="M101 137.6h6.58v66.86H101zm11.7 0h3.3v66.86h-3.3zm62.2 0h6.6v66.86h-6.6zm11.7 0h3.3v66.86h-3.3z"/><path fill="#F8B68F" fill-rule="nonzero" d="M260.45 287.98l6.22 15.34-10.25 25.98-10.88-35.57z"/><path fill="#F8AB44" fill-rule="nonzero" d="M101.1 250.43l-9 20.15-8.7 52.2h8.7c22.36-24.55 22.36-69.6 22.36-69.6l-13.37-2.75z"/><path fill="#FFD247" fill-rule="nonzero" d="M175 339.86H79a10.08 10.08 0 0 1-10-11.36l10.35-80.9H93s2.8 22.83 3.1 35.64c1.25 14.06-6.82 35.18-6.82 35.18s46.9-28.58 67.1-26.7c15.84 2 19.68-.94 19.68-.94L175 339.86z"/><path fill="#63C1C5" fill-rule="nonzero" d="M237.16 268.1s13.66-1.87 23.3 19.88a36.9 36.9 0 0 1-9.8 8.08s1 15.74-4.5 19.26c-5.5 3.52-39.45 24.54-39.45 24.54H175V297.6l44.42-30.82 17.74 1.32z"/><path fill="#F4A086" fill-rule="nonzero" d="M225.37 255.47c-2 0 .76 13.1.76 13.1s.15 19.4 7 19.4c7.76 0 7.76-20 7.76-20v-5.32s-13.5-7.18-15.53-7.18z"/><path fill="#F8B68F" fill-rule="nonzero" d="M239.4 266.6c1.88.28 3.7.3 4.75-.37 7-7.68 7-32.15 7-32.15h-22.38l-3.44 15.54a13.38 13.38 0 0 0 3 11.68 21.36 21.36 0 0 0 11.06 5.3z"/><path fill="#212B53" fill-rule="nonzero" d="M169.82 264.6c17.88-9.66 29.27-4.78 35.18-7.45 9.8-4.43 15.15-34.72 32.5-33.1 17.35 1.64 17.36 13.3 17.36 13.3s3.86 10-20.1 7.66c-3.83-.35-8.68 1.66-8.77 5.52-.24 9.66.13 18 .13 18s-17.86 5.6-24.62 11.9c-6.75 6.28-19.1 38.43-38.9 38.43-18.6-1.6-21.67-38.64 7.22-54.25z"/><path fill="#F8B68F" fill-rule="nonzero" d="M191.5 300.72l18 10.56-8 14.9c-2 2.6-.18 4.46 3.07 4.54l44.7 1.06v8.08h-69.5c-8.16 0 11.72-39.14 11.72-39.14z"/><path fill="#043C5E" fill-rule="nonzero" d="M321.03 297.6H258.6l-20.52 42.26h62.45zM220.38 336.13h80.15v3.73h-80.15z"/><path fill="#EFEEEE" fill-rule="nonzero" d="M282.24 313a2.5 2.5 0 1 0 2.5-2.5 2.5 2.5 0 0 0-2.5 2.5z"/><path fill="#F8B68F" fill-rule="nonzero" d="M81.05 247.6l2.33-12.35 1.87-.4a9.8 9.8 0 0 1 3.62-.04l2.43.45v12.34H81.05z"/><path fill="#212B53" fill-rule="nonzero" d="M83.38 235.25l-10.57-14c-1.68-2.24-3.13-5.2-1.22-7.83a24.48 24.48 0 0 1 2.8-3.23c1.34-.3 20.07 20.28 20.07 20.28v.18a4.88 4.88 0 0 1-5.3 4.9l-5.77-.3z"/><path fill="#FFF" fill-rule="nonzero" d="M74.38 210.18l20.07 20.3.87-1.23L75.3 209.2zm5.52 20.4l2.95-2.1 1.08 1.5-2.95 2.1zm-2.8-3.7l3.13-2.2 1.07 1.54-3.12 2.2z"/><path fill="#212B53" fill-rule="nonzero" d="M109.27 240.9l-5.6-16.63c-.9-2.66-1.36-5.92 1.3-7.83a25.16 25.16 0 0 1 3.67-2.18c1.37.14 12.64 25.6 12.64 25.6l-.07.16a4.87 4.87 0 0 1-6.55 3l-5.38-2.13z"/><path fill="#FFF" fill-rule="nonzero" d="M108.64 214.26l12.64 25.6 1.2-.9-12.67-25.33zm-1.2 21.1l3.46-1.07.54 1.77-3.46 1.06zm-1.5-4.4l3.66-1.08.54 1.78-3.65 1.1z"/><path fill="#F8B68F" fill-rule="nonzero" d="M103.63 250.96l5.62-10.2 7.56 2.58-3.5 9.6zm121.2-4.16a3.05 3.05 0 1 1-.56 4.28 3 3 0 0 1 .57-4.28z"/><path fill="#FFDB71" fill-rule="nonzero" d="M222.94 83.26l-4.8-3 15-6.7-6.22-14.16a20.47 20.47 0 0 0-17.38-10.93h-30.9a20.47 20.47 0 0 0-17.37 10.93l-6.2 14.15 15 6.7-4.8 3-2.68 23 31.5-.5 31.5.5-2.66-23z"/><path fill="#F8B68F" fill-rule="nonzero" d="M233.13 73.55l3.1 10.23a19.78 19.78 0 0 1-6.23 20.77l-14 11-4.52-12.3 7.7-7.25a7.9 7.9 0 0 0 1.93-9.07l-3-6.68 15.03-6.7zm-61.37 65.9l-12.52 1.7-2.4-2.66 1.2-4.8 12.05-1.74z"/><path fill="#01898C" fill-rule="nonzero" d="M159.24 141.14l-15.76 1.94s-15.5 2-13.27-6.53c2.17-8.26 16.1-4.6 16.1-4.6l13 1.57a6.57 6.57 0 0 0-.2 7.35l.14.27z"/><path fill="#FFF" fill-rule="nonzero" d="M130.2 136.55c.88-3.33 3.65-4.72 6.66-5.2v11.78c-3.86-.44-7.86-1.97-6.65-6.58z"/><path fill="#F8B68F" fill-rule="nonzero" d="M152.24 134.38v5.06"/><path fill="#FFF" fill-rule="nonzero" d="M151.6 134.38h1.3v5.06h-1.3z"/><path fill="#F8B68F" fill-rule="nonzero" d="M149.04 134.38v5.06"/><path fill="#FFF" fill-rule="nonzero" d="M148.4 134.38h1.3v5.06h-1.3z"/><path fill="#F8B68F" fill-rule="nonzero" d="M155.2 73.55l-3.1 10.23a19.8 19.8 0 0 0 6.26 20.77l14.06 11 4.52-12.3-7.78-7.25a7.9 7.9 0 0 1-1.92-9.07l3-6.68-15.03-6.7zm62.58 66.83l12.73.76 2.42-2.65-1.23-4.8-12.04-1.74z"/><path fill="#01898C" fill-rule="nonzero" d="M230.5 141.14l15.76 1.94s15.5 2 13.28-6.53c-2.16-8.26-16.08-4.6-16.08-4.6l-13 1.57a6.58 6.58 0 0 1 .18 7.35l-.13.27z"/><path fill="#FFF" fill-rule="nonzero" d="M259.54 136.55c-.87-3.33-3.65-4.72-6.65-5.2v11.78c3.9-.44 7.85-1.97 6.64-6.58z"/><path fill="#F8B68F" fill-rule="nonzero" d="M237.5 134.38v5.06"/><path fill="#FFF" fill-rule="nonzero" d="M236.86 134.38h1.3v5.06h-1.3z"/><path fill="#F8B68F" fill-rule="nonzero" d="M240.7 134.38v5.06"/><path fill="#FFF" fill-rule="nonzero" d="M240.06 134.38h1.3v5.06h-1.3z"/><path fill="url(#c)" fill-rule="nonzero" d="M170.28 88.52h51.94v31.08h-51.94z"/><path fill="#CBB8CD" fill-rule="nonzero" d="M170.28 118.3h51.94v2.6h-51.94z"/><path fill="#FFF" fill-rule="nonzero" d="M194.17 101.2a2.08 2.08 0 1 0 4.16.02 2.08 2.08 0 0 0-4.16-.02z"/><path fill="#212B53" fill-rule="nonzero" d="M259.4 111.3c10.38 18.5-94.13 29.84-94.13 29.84l-1.77-8.23s83.1-44.38 95.9-21.6z"/><path fill="#043C5E" fill-rule="nonzero" d="M130.35 111.3c-8.82 19.3 95 30.85 95 30.85l.77-9.26s-85.35-44.38-95.77-21.6z"/><path fill="#F4A086" fill-rule="nonzero" d="M199.57 48.4c-1-2.9-2.7-11.55-2.7-11.55L185.73 39v9.43s3.7 2.62 6.8 2.65c3.4.04 7.15-2.35 7.03-2.68z"/><path fill="#F8B68F" fill-rule="nonzero" d="M199.58 21.54l-2.1-12.35-21.37 2.52L177.4 26s1.66 17.6 13 15.52c12.34-2.32 9.72-20.14 9.18-19.98z"/><path fill="#212B53" fill-rule="nonzero" d="M204.57 19.85a8.4 8.4 0 0 1 .9-5.14c3.7-6-1.9-7.78-3.84-8.3-2.15-.58-2.84-3.94-5.73-5-4.42-1.64-6.9 2.3-9.3 2.6-2.4.3-4.77-2.26-7.55.4-2.78 2.64-1.6 5.1-2.3 6.53-.7 1.43-3.6-1-5.7 3.5-1.6 3.4.16 5.4 2.33 6.54a9.5 9.5 0 0 0 8.17.2 37.26 37.26 0 0 0 8.57-5.17c.83-.68 7.35-1.13 7.9-.2 1.83 3.14 2 13.58 2 13.58l1.9-2.66a6.8 6.8 0 0 0 2.65-6.87z"/><path fill="#F8B68F" fill-rule="nonzero" d="M197.56 23.08c-.58 1.5-.23 3 .76 3.4 1 .38 2.27-.52 2.84-2 .57-1.5.23-3-.76-3.4-1-.4-2.27.5-2.84 2z"/></g></svg>