<svg xmlns="http://www.w3.org/2000/svg" width="593" height="502"><defs><linearGradient id="a" x1="100.003%" x2=".001%" y1="49.989%" y2="49.989%"><stop offset="0%" stop-color="#E0F0EB"/><stop offset="100%" stop-color="#C0E4EF"/></linearGradient><linearGradient id="b" x1="0%" y1="49.995%" y2="49.995%"><stop offset="0%" stop-color="#E0F0EB"/><stop offset="100%" stop-color="#C0E4EF"/></linearGradient><linearGradient id="c" x1="-.086%" x2="99.914%" y1="50%" y2="50%"><stop offset="0%" stop-color="#E0F0EB"/><stop offset="100%" stop-color="#C0E4EF"/></linearGradient><linearGradient id="d" x1="100%" x2="0%" y1="49.997%" y2="49.997%"><stop offset="0%" stop-color="#E0F0EB"/><stop offset="100%" stop-color="#C0E4EF"/></linearGradient><linearGradient id="e" x1=".059%" x2="100.322%" y1="50%" y2="50%"><stop offset="0%" stop-color="#E0F0EB"/><stop offset="100%" stop-color="#C0E4EF"/></linearGradient><linearGradient id="f" x1="35.461%" x2="70.366%" y1="-7.981%" y2="133.25%"><stop offset="0%" stop-color="#E0F0EB"/><stop offset="100%" stop-color="#C0E4EF"/></linearGradient></defs><g fill="none"><g transform="matrix(-1 0 0 1 593 0)"><path fill="url(#a)" d="M573.55 152.78c7.67 33.34-70.94 37.62-103.33 38-8.97.1-17.93-.75-26.72-2.54-27.4-5.56-87.36-20.15-78.95-40C375.4 122.66 408 140.5 408 140.5s-4.1-19.32 51.37-32.08c55.47-12.76 55.24 29.76 55.24 29.76s49.32-27.27 58.95 14.6z"/><path fill="url(#b)" d="M42.9 103.2h320.64s17.4-22 0-36.8c-9.6-8.16-20.93-7.3-29.16-4.9-5.38 1.55-10.7-2.07-11.9-7.5-1.94-9-8-20.88-25.2-27.87-17-6.88-27.73 3.62-33.95 14.42a4.82 4.82 0 0 1-8.72-.9C249.24 22.6 230.48 0 168.84 0c-78.4 0-69.68 41.68-62.67 59a4 4 0 0 1-4.54 5.44c-12.1-2.58-34.53-5.93-44.6 2C42.9 77.5 42.9 103.2 42.9 103.2z"/><path fill="#043C5E" d="M206.77 313.12s-15.58-118-100-139.78c-87.33 121.94 32.82 207.5 32.82 207.5l67.17-67.72z"/><path fill="#00666A" d="M106.8 173.34l-.9 1.27 52.5 130L75.77 276c.1 1 .23 1.93.36 2.9l83.56 28.9 15.14 37.5 2-2-30.2-74.77 28.54-41.9c-.5-.78-1-1.58-1.54-2.37l-28.17 41.35-37.1-91.82c-.52-.15-1-.3-1.58-.44z"/><path fill="#FFD247" d="M167.68 302.88S82 220.76 2.55 246.28c-19.9 98.42 86.5 137.28 86.5 137.28L192.7 379l-25.02-76.12z"/><path fill="#FFF" d="M94.73 255.07l-1.55 52.6L4.44 245.7l-1.9.57c-.07.38-.13.75-.2 1.14l47.52 33.17-47.48 11.6c.1.47.2.9.3 1.36l.3 1.2 49.74-12.16 79.2 55.3-82.68 23 2.65 2 82.8-23.06 56.3 39.24 1.75-.08-.8-2.45-96.16-67.1 1.56-53.25c-.9-.38-1.76-.76-2.63-1.13z"/><path fill="#63C1C5" d="M163.05 359.46S65.1 345 32.2 402.78c65 119.26 221.28 45 221.28 45l-90.43-88.32z"/><path fill="#01898C" d="M32.2 402.78c.25.46.5.9.76 1.36l133.8 9.36-49.45 53.72 3 .6 49.8-54.08 52.25 3.65-2.9-2.83-101.73-7.12-36.64-41.7-2.67.9L114 407.2l-81-5.68c-.25.42-.5.83-.75 1.26h-.05zM388.94 313S384 191.75 465 155.08c109.07 107.34 3.22 214.32 3.22 214.32L388.94 313z"/><path fill="#FFF" d="M465 155.08l1.13 1.12L436.07 296l78.08-43.14c.05 1 .1 2 .13 3l-78.95 43.63-8.68 40.34-2.37-1.68 17.3-80.43-36-37.12c.38-.88.76-1.77 1.14-2.65l35.54 36.65 21.26-98.78 1.5-.73-.02-.02z"/><path fill="#FFD247" d="M423 293.1s82.33-88.73 164.8-67.47c26.14 99.05-79.9 145-79.9 145l-105.85 1.53L423 293.1z"/><path fill="#FFF" d="M494.45 240.07l4.7 53.47 86.7-68.38c.66.16 1.3.3 2 .47.1.4.2.77.3 1.16l-46.44 36.6 49.06 9c-.07.48-.16.94-.24 1.4l-.23 1.23-51.38-9.4-77.38 61 85.6 18.5c-.87.75-1.73 1.48-2.6 2.18l-85.7-18.53-55 43.34h-1.8l.68-2.53 93.93-74.08-4.78-54.14 2.58-1.3z"/><path fill="#043C5E" d="M431.1 350.46l-32.53 35.72a54 54 0 0 1 12.18 13.2l6.25 13.08a47.48 47.48 0 0 1 1.7 25 71 71 0 0 1 6.14 12.64 43.25 43.25 0 0 1 2.56 13.05c49.62 2.27 108.8-11 139.58-76.32-36.98-56.97-135.9-36.37-135.9-36.37z"/><path fill="#00666A" d="M566.94 386.78c-.27-.42-.56-.82-.84-1.23l-82.22 10.6 33.85-43.4c-.93-.27-1.85-.52-2.78-.77l-34.83 44.66-66.6 8.6 1.2 2.52 12.43-1.6 53.93 52.12 3-.8-53.56-51.76 135.7-17.5.72-1.44z"/><path fill="#63C1C5" d="M147.67 51.6h301.6v422.42h-301.6z"/><path fill="#222C53" d="M441.77 47.9H158.9c-8.76 0-15.92 5.7-15.92 12.7v406.2c0 7 7.16 12.7 15.9 12.7h282.9c8.74 0 15.9-5.7 15.9-12.7V60.6c0-7-7.16-12.7-15.9-12.7zm7.5 391.5H152.7V77.3h296.57v362.1z"/><path fill="#FFF" d="M308.28 458.93a13.1 13.1 0 1 1-13.08-13.1c7.23.02 13.08 5.87 13.08 13.1z"/><path fill="#63C1C5" d="M305.7 458.93a10.52 10.52 0 1 1-10.5-10.52c5.8.02 10.5 4.72 10.5 10.53z"/><path fill="url(#c)" d="M313.24 66.06H286a3.87 3.87 0 0 1-3.86-3.86 3.87 3.87 0 0 1 3.86-3.86h27.27a3.87 3.87 0 0 1 3.86 3.86 3.87 3.87 0 0 1-3.9 3.86z"/><path fill="#FFF" d="M168.37 88.77h267.78v337.3H168.37z"/><path fill="#63C1C5" d="M207.88 277.5h70.6v70.6h-70.6zm-17.06-133.44h79.56v4.54h-79.56zm0 13.7h79.56v4.55h-79.56zm0 17.3h79.56v4.53h-79.56zm0 13.7h79.56v4.55h-79.56z"/><path fill="#01898C" d="M330.07 259.5h79.56v4.55h-79.56zm0 13.72h79.56v4.54h-79.56zm0 17.28h79.56v4.54h-79.56zm0 13.72h79.56v4.54h-79.56z"/><path fill="#FFD247" d="M168.37 88.77h273.2v37.3h-273.2z"/><path fill="#F4A086" d="M321.65 229.13l3.2 31.42-33.67 1.33 6.75-48.7z"/><path fill="#F8B68F" d="M332 234.87c3.9-.1 7.54-.7 9.43-2.24 11.28-16.4-1.57-60.62-1.57-60.62l-18-7.57-22.9 14.28-1.3 29.64a24 24 0 0 0 10.22 20.44 46.88 46.88 0 0 0 24.12 6.1z"/><path fill="#212B53" d="M302.53 195.5c1.26-5 .6-16.46 5.67-15.63 3.7.6 16.37 1.13 20.63 1.13 10.16 0 28.27-4 28.27-19.44 0-7.73-7.5-14.4-12.24-16.37a20.57 20.57 0 0 0-14.7-.2c-11.18 3.9-26 12.54-31.94 11.35-10-2-19.9 3.84-19.75 12.3.15 9 4.87 22.62 9.3 31.26a47.6 47.6 0 0 0 10.16 13.28l4.6-17.68z"/><path fill="#F8B68F" d="M292.23 196.62c2.26-2 6.5-1.62 9.47.85 2.97 2.47 3.53 6.1 1.26 8.08-2.27 2-6.5 1.63-9.46-.84-2.96-2.46-3.5-6.08-1.27-8.08z"/><path fill="url(#d)" d="M377.53 425.58v-84.36c0-37.15-29-88.37-66.1-89.73-1.13 0-2.26-.07-3.42-.07a102 102 0 0 0-15.5 1.15c-33.77 5.2-58.24 35.07-58.24 69.24v103.76h143.27z"/><path fill="#FFF" d="M323.34 242.95H293.4l-4.75 11.02 38.54 1z"/><path fill="url(#e)" d="M257.06 426.08l6-157.48s-39.7 25.5-43 79.4c-2.06 34 2.73 56.78 4.4 78.08h32.6z"/><path fill="#63C1C5" d="M274.43 425.8l-9.38-112.22c-1.86.68-2.73 2.37-3.58 4.06l9 107.36 3.96.8z"/><rect width="23.04" height="23.04" x="285.22" y="187.41" fill="#01898C" rx="5.54"/><path fill="#01898C" d="M322.34 148.28a36.85 36.85 0 0 1 10.55-4h-15.6c-13.87.02-25.12 11.27-25.14 25.15v23.66h4v-23.67c.02-11.67 9.48-21.13 21.15-21.15h5.04zm16.77 75.34l-1.1-3.85 7.2-2a5 5 0 0 0 3.12-7.04l-2.56-5.14-1-10.23 7.17 13.57a9 9 0 0 1-5.6 12.67l-7.22 2.02z"/><path fill="#043C5E" d="M340.42 224.66l-5.1 1.34a3.55 3.55 0 0 1-4.33-2.54 3.56 3.56 0 0 1 2.54-4.32l5.1-1.32a3.55 3.55 0 0 1 4.32 2.55 3.54 3.54 0 0 1-2.54 4.3z"/><path fill="#63C1C5" d="M457.67 37.68c-45.1.02-81.67 36.6-81.67 81.7 0 16.8 5.06 26.36 14.65 45.4 13.95 27.68-9.07 39.4-9.07 39.4s60.36.42 76.13.42c45.13 0 81.7-40.1 81.7-85.22a81.7 81.7 0 0 0-81.73-81.7z"/><path fill="#01898C" d="M240.63 375.92l34.2 114.58h-3.95l-34.2-114.58zm-35.82 0L239 490.5h-3.94l-34.2-114.58zM240.47 375.92v3.16l-37.12-.02-.58-3.14zm6.34 22.48v3.46l-37.1-.02-.64-3.46zm6.57 23.67l1.5 3.46-37.12-.02-.63-3.45zm6.96 23.67l1.5 3.46-37.12-.02-.62-3.46zm6.52 23.14l1.5 3.47-37.12-.03-.63-3.46z"/><path fill="#043C5E" d="M81.08 375.92L46.88 490.5h-3.94l34.2-114.58zm35.82 0L82.7 490.5h-3.94l34.2-114.58zM115 375.92l-.58 3.14-37.12.02v-3.16zM70.96 398.4v3.46l37.1-.02.65-3.46zm-6.57 23.67l-1.5 3.46 37.1-.02.64-3.45zm-6.97 23.67l-1.5 3.46 37.12-.02.64-3.46zm-6.5 23.14l-1.5 3.47 37.1-.03.64-3.46zM247.47 379.08H66.35v-5.7h181.12z"/><path fill="#212B53" d="M191.6 368.5s1.2 1.68 6.9 3.12c1.24.32 2.6.54 2.6 2.6h-5.62l-5.73-1v1h-3.1s-.85-5.06.95-5.7h4z"/><path fill="#F8B68F" d="M191.9 364.87l-.3 3.64a3.5 3.5 0 0 1-3.78.14l-.22-.13v-3.63h4.3z"/><path fill="#212B53" d="M162.86 369.23s1.2 1.67 6.88 3.12c1.25.32 2.6.53 2.6 2.6h-5.6L161 374v1h-3.1s-.85-5.07.95-5.72l4-.05z"/><path fill="#F8B68F" d="M163.15 365.6l-.3 3.63a3.48 3.48 0 0 1-3.78.13l-.22-.13v-3.63h4.3z"/><path fill="#212B53" d="M194.2 275.52l-1.4 91.33h-6.66s-10.13-73.74-8-91.33c2.13-17.6 16.05 0 16.05 0z"/><path fill="#11375B" d="M187.15 275.5s-2.3 28.05-7.63 43.58c-5.32 15.53-14.93 47.77-14.93 47.77h-6.9s11.5-67.36 8.87-91.35h20.58z"/><path fill="#00666A" d="M193.15 229s8.2 19.12 10.28 19.12c1.67 0-.62-15.6-.62-15.6h6.88s8.63 26.75 1.76 31.64c-6.87 4.9-21.95-13.84-21.95-13.84l3.65-21.32z"/><path fill="#F8B68F" d="M168.7 277.92l2.48 6.15c1.2 2.4 5.6 2.47 8.52 1.7a.6.6 0 0 0 .28-1c-1.6-1.75-5.76-6.26-7.2-7.26l-4.08.42z"/><path fill="#00666A" d="M189.5 225.06s4.27 2.9 4.27 6.23v44.2h-25.1v-41.33s.52-9.2 9.5-9.2 11.32.1 11.32.1z"/><path fill="#01898C" d="M193.35 275.5v-39.68l.84.02v39.67z"/><path fill="#F4A086" d="M180.4 215.2v10.4a6.37 6.37 0 0 0 4.86 2.4c3.13 0 3.13-2.26 3.13-2.26v-6.7l-4.65-1.2-3.36-2.65z"/><path fill="#F8B68F" d="M188.8 221a3.87 3.87 0 0 0 2.3-.6c2.8-4.44-.38-16.38-.38-16.38l-10.1 1.8-.3 8a6.73 6.73 0 0 0 2.5 5.52 10.84 10.84 0 0 0 5.97 1.66z"/><path fill="#212B53" d="M185.38 206.07c2.27.37 4.6.37 6.87 0 3.53-.62 1.27-4.5 1.27-4.5s-2.6 1.2-7.24.5c-3.13-.46-4-1.07-6 0-2.73 1.45-2.07 6.38-2.07 6.38l1.5 10.42h.58s.13-6.2.13-8.3c.6-1 1.24-1 1.73-.73.53.28.85.83.84 1.43v10.82s6.9 3 8.64 2.42c1.76-.57.6-8.55.6-8.55a3.2 3.2 0 0 0-3.6.88c-1.54 1.73-3.43-.07-3.43-.07l.2-10.7z"/><path fill="#F8B68F" d="M208.36 232.52l-.24-1.32c-.54-2.92-3.33-6.56-6.14-7.5h-2.92l.9 6.22 4.12 2.6h4.28zm-27.07-22.95a1.77 1.77 0 0 1 1.65 1.66 1.5 1.5 0 0 1-1.14 1.88 1.74 1.74 0 0 1-1.65-1.64 1.5 1.5 0 0 1 1.14-1.9zM201.17 229.23l5.68 3.3h-3.63l-6-5s.44-.9 1.8-.15a7 7 0 0 1 2.15 1.85z"/><path fill="#00666A" d="M171.35 227.75s-14.2 15.76-14.2 25.25 11.53 26.1 11.53 26.1l5.68-1.67s-5.13-20.6-5.13-26.1 10.54-13.5 10.54-13.5"/><path fill="#01898C" d="M169.65 251.3c0 4.72 4.17 22 5.15 26l-.84.22c-1.2-5-5.15-21.57-5.15-26.2 0-5.63 10.3-13.52 10.72-13.86l.5.67c-.1.07-10.37 7.96-10.37 13.17z"/><path fill="#F59C42" d="M197.37 218.9s-1.18 6.12 2.6 11c.26.33.64.54 1.06.6a4.23 4.23 0 0 0 2-.32 1.85 1.85 0 0 0 1.2-.86.8.8 0 0 0-.1-.82c-.76-1.14-3.12-5-2.05-8.52a6.18 6.18 0 0 0-4.7-1.07z"/><path fill="#FAB746" d="M203.5 230a1.2 1.2 0 0 0 .68-.64.8.8 0 0 0-.1-.82c-.75-1.14-3.1-5-2.04-8.52a5.2 5.2 0 0 0-2.23-1c-.1 3.75.7 6.3 3.7 10.98z"/><path fill="#F59C42" d="M200.73 224c.18.87.6 1.52 1 1.45.4-.07.48-.83.3-1.7s-.6-1.53-.95-1.46c-.34.06-.53.77-.35 1.7zM200.96 222.26l.36-.08-.02.18-.24.1z"/><path fill="#E8375E" d="M201.6 225.4l.44-.08-.5-.07z"/><path fill="#FFD247" d="M201 223.9c.18.86.6 1.5.94 1.44.34-.07.48-.83.3-1.7s-.6-1.53-1-1.46c-.4.07-.4.82-.24 1.7zm-5.17-10.13h-.67a2.3 2.3 0 0 0-2.34 2.22v1.76a2.3 2.3 0 0 0 2.34 2.23h.67v-6.23z"/><path fill="#212B53" d="M216.4 215.52c0 4.83-1.12 8.74-2.48 8.74s-2.48-3.9-2.48-8.74 1.1-8.74 2.48-8.74c1.37 0 2.47 3.9 2.47 8.74z"/><path fill="#FFF" d="M211.33 212.3l1.96 1.27v2.83l-2.03 1.83-.7-3.68z"/><path fill="#F7A605" d="M211.44 215.52c0-4.06.78-7.46 1.84-8.45a40 40 0 0 1-17.84 6.76V220s13-.73 17.84 4c-1.06-1-1.84-4.42-1.84-8.48z"/><path fill="#FFD247" d="M213.55 215c0 .78-.12 1.42-.26 1.42s-.28-.64-.28-1.42c0-.78.12-1.42.27-1.42.14 0 .25.62.25 1.42z"/><path fill="#F8B68F" d="M205.2 228a6.56 6.56 0 0 1-3.17.52c-1.65 0-2.4-2-2.68-3.13-.1-.4-.2-.95.3-1.2l2.65-.37 2.9 4.17z"/><path fill="#212B53" d="M507.92 492.56s-2.47 2.3-8.12 3.73c-1.24.3-2.58-.1-2.58 1.93h6.85l5.7-1v1h3.07s.86-5-.94-5.67h-3.98z"/><path fill="#F8B68F" d="M508.27 489l-.35 3.6a3.48 3.48 0 0 0 3.77.14l.2-.13 1.28-3.6h-4.9z"/><path fill="#212B53" d="M535.3 492.56s-2.5 2.3-8.13 3.73c-1.24.3-2.58-.1-2.58 1.93h6.84l5.7-1v1h3.07s.86-5-.93-5.67h-3.98z"/><path fill="#F8B68F" d="M535.63 489l-.34 3.6a3.48 3.48 0 0 0 3.76.14l.2-.13 1.28-3.6h-4.9z"/><path fill="#212B53" d="M518.83 398.5h-7.88l-2.77 91.3h5.32l15.64-74.3z"/><path fill="#043C5E" d="M516.27 398.5l18.4 91.3h5.87l-2.4-91.3z"/><path fill="#212B53" d="M532.27 418.6l1.76-.14a3.16 3.16 0 0 1 .82-2.15 4.5 4.5 0 0 1 3.27-1.04 5 5 0 0 1 3.52 1c.4.4.64.93.65 1.5l1.75.1a3.72 3.72 0 0 0-1.1-2.74 6.55 6.55 0 0 0-4.83-1.6 6.13 6.13 0 0 0-4.58 1.6 4.77 4.77 0 0 0-1.27 3.47zm18.83 19h-26.36v-16.96h26.36z"/><path fill="#FFDB71" d="M537 432.08c0 1 .5 1.15 1.1 1.15.6 0 1.1-.12 1.1-1.15v-3.6a68.2 68.2 0 0 0 12-2.14v13.38c0 1.2-.47 2.16-1.17 2.16h-24c-.7 0-1.17-1-1.17-2.16v-13.34a78.18 78.18 0 0 0 12.14 2.07v3.63z"/><path fill="#F7A605" d="M530.05 427.53a49.6 49.6 0 0 0 4.1 6.9 73.1 73.1 0 0 0 6.3 7.45H525.9c-.7 0-1.17-1-1.17-2.16v-13.34c2.48.62 3.9.9 5.32 1.15z"/><path fill="#63C1C5" d="M525.9 417h24c.7 0 1.17 1 1.17 2.17v6.5a41.36 41.36 0 0 1-12 2v-.9c0-1-.5-1.14-1.1-1.14-.6 0-1.1.1-1.1 1.15v.87a42.1 42.1 0 0 1-12.22-2v-6.5c.08-1.15.55-2.15 1.25-2.15z"/><path fill="#FFF" d="M536.6 430.52v-1.1a.47.47 0 0 1 .48-.5H539a.48.48 0 0 1 .48.5v1.1a.5.5 0 0 1-.48.48h-1.9a.48.48 0 0 1-.5-.48zm.48-1.46a.35.35 0 0 0-.34.35v1.12a.34.34 0 0 0 .34.34H539a.34.34 0 0 0 .34-.34v-1.1a.35.35 0 0 0-.34-.36h-1.92zM537.92 429.84a.1.1 0 0 0 .12.1.1.1 0 0 0 .12-.1v-1.56a.1.1 0 0 0-.12-.1.1.1 0 0 0-.12.1v1.56z"/><path fill="#F8B68F" d="M473.06 384.94a6.88 6.88 0 0 1-3.72 1.08c-2.2.18-6.86-.77-6 1.4 2.1 1.12 4.43 2.7 4.43 2.7 1.33.57 3.7 0 5.1-.66L477 387s.35-2.3.38-2.4l-.93-.4a11.1 11.1 0 0 1-3.4.74zM472.3 385.9a2.85 2.85 0 0 1-.24.27c.3.12.58.25.85.4 1.16 0 2.3.08 3.45.13-.07-.66-.17-1.6-.16-1.66l-7.47-1.77s-.6.78.76 1.63a7.77 7.77 0 0 0 2.8 1zm64.6 23.24l-2.48 5.45s.53 3 1.63 4.15c.34.35.85.45 1.3.26 1-.42 3.4-1.45 3.8-2a1.14 1.14 0 0 0 .13-1l-.72-2.4-.1-5.6-3.56 1.14z"/><path fill="#F4A086" d="M522.3 343.64l-.07 7.3 6.5-.35.4-11.32z"/><path fill="#F8B68F" d="M521.23 344.32a4 4 0 0 1-2.2-.52c-2.62-3.8.37-14.1.37-14.1l4.2-1.75 5.3 3.32.3 6.88a5.57 5.57 0 0 1-2.36 4.75 10.92 10.92 0 0 1-5.6 1.42z"/><path fill="#212B53" d="M527.43 335.17c-.3-1.16.5-3.83-.67-3.63-.86.14-3.8.26-4.8.26-2.36 0-6.57-.92-6.57-4.52a3.27 3.27 0 0 1 2.2-3.16c1.08-.46 2.3.84 3.4 1.23 2.6.9 8 1.65 9.35 1.36a3.18 3.18 0 0 1 3.3 2.23c.28 2.08-1.12 5.26-2.15 7.26a11.28 11.28 0 0 1-2.36 3.08l-1.7-4.1z"/><path fill="#F8B68F" d="M530.47 335.43a1.78 1.78 0 0 0-2.2.2c-.7.57-.82 1.4-.3 1.88a1.8 1.8 0 0 0 2.2-.2c.7-.56.83-1.4.3-1.87z"/><path fill="url(#f)" d="M525.7 348.65a18.7 18.7 0 0 1 7.62 1.57 18.35 18.35 0 0 1 10.28 12.7c2.07 8.78 5.54 29.63-2.42 47.9a40.08 40.08 0 0 1-5.32 0l-.86-43.07.6 30.77H511v-19.85s-.64 4.48-6.6 8.62c-5.96 4.13-28.4 1.38-28.4 1.38V384s19.6-4.1 22.78-6.54c3.2-2.43 10.1-19.88 10.1-19.88a15.73 15.73 0 0 1 10.78-8.37 29.74 29.74 0 0 1 6.03-.55z"/><path fill="#63C1C5" d="M535.27 398.7l-.58-29.66.63-.02.58 29.67z"/><path fill="#FFF" d="M528.86 346.57l.4 2.4h-7.48l.5-2.4zM184.4 96.47h128.13v20.67H184.4z"/></g><path fill="#FFF" d="M81 139.55v-3.15l4-3.9c9.68-9.22 14.06-14.12 14.1-19.84 0-3.84-1.85-7.4-7.5-7.4a12.9 12.9 0 0 0-8.06 3.2l-1.63-3.6A16.6 16.6 0 0 1 92.65 101c8.17 0 11.6 5.6 11.6 11 0 7-5.07 12.66-13.06 20.36l-3 2.8v.1h17v4.27l-24.18.02zm45.64.36v-10.3H109v-3.4l16.92-24.2h5.54v23.56h5.3v4h-5.3v10.32l-4.82.03zm0-14.34V112.9c0-2 .06-4 .17-6h-.16c-1.17 2.23-2.1 3.86-3.15 5.6l-9.3 12.98v.1l12.44-.02zM138 141.28L154.27 99h4l-16.33 42.28zM185.9 102v3.4l-16.5 34.5h-5.3l16.44-33.52v-.12H162V102z"/></g></svg>