<svg xmlns="http://www.w3.org/2000/svg" width="189" height="173"><defs><linearGradient id="a" x1="0%" x2="99.991%" y1="50.012%" y2="50.012%"><stop offset="0%" stop-color="#E0F0EB"/><stop offset="100%" stop-color="#C0E4EF"/></linearGradient><linearGradient id="b" x1=".042%" y1="50%" y2="50%"><stop offset="0%" stop-color="#E0F0EB"/><stop offset="100%" stop-color="#C0E4EF"/></linearGradient><linearGradient id="c" x1="0%" x2="100.03%" y1="50%" y2="50%"><stop offset="0%" stop-color="#E0F0EB"/><stop offset="100%" stop-color="#C0E4EF"/></linearGradient><linearGradient id="d" x1="0%" x2="100.01%" y1="50%" y2="50%"><stop offset="0%" stop-color="#E0F0EB"/><stop offset="100%" stop-color="#C0E4EF"/></linearGradient></defs><g fill="none"><path fill="url(#a)" d="M15.64 61.86c-5.6 24.38 51.9 27.5 75.6 27.78a92.84 92.84 0 0 0 19.54-1.86c20.04-4.05 63.9-14.73 57.75-29.25-7.94-18.72-31.78-5.67-31.78-5.67s3-14.13-37.58-23.47c-40.56-9.34-40.4 21.77-40.4 21.77S22.7 31.21 15.64 61.86z"/><path fill="#01898C" d="M81.2 101.53s-16.98-37.9-46.13-40.1c-19.4 29.3 10 55.92 10 55.92l34.22 12.15 1.9-27.97z"/><path fill="#00666A" d="M63.82 76.42L56.4 93.27 35.76 61.5l-.7-.07c-.07.12-.14.23-.2.35l11.04 17-16.93-2.47c-.03.17-.05.33-.07.5l-.07.4 17.73 2.62 18.42 28.35-29.85-3.42c.2.33.4.66.6 1l29.9 3.4L78.7 129.3l.6.2.05-.9L57 94.18l7.5-17.07-.68-.7z"/><path fill="#FFD247" d="M72.24 119.27s-29.87-17.6-48.15-3.15c5.4 47.25 65.85 43.73 65.85 43.73l1.58-27.76-19.3-12.83z"/><path fill="#FFF" d="M24.1 116.1l.06.54 42.17 20.65-23.1 10.9c.3.2.6.4.9.6l23.26-11 16.46 8.07-.56-1.3-32.08-15.7-6.4-18.35c-.32-.02-.65-.04-.98-.05l6.2 17.83-25.54-12.5c-.13.1-.27.2-.4.3z"/><path fill="#FFD247" d="M92.66 110s-2.86-41.56 24.57-54.9c38.46 35.76 3.18 73.48 3.18 73.48L92.67 110z"/><path fill="#FFF" d="M117.23 55.08l.4.37-8.97 48.26 26.36-15.55c.03.34.06.68.08 1.02l-26.66 15.75-2.6 13.92-.82-.55 5.16-27.77-12.7-12.38c.12-.3.24-.62.36-.93l12.55 12.23 6.32-34.1.5-.26v-.02z"/><path fill="#043C5E" d="M105.36 99.26s23.67-34.13 52.72-30.9c13.67 32.4-20.13 53.1-20.13 53.1l-35.88 5.64 3.3-27.84z"/><path fill="#00666A" d="M127.06 77.78l4.2 17.94 26.13-27.45.68.06.15.4-14 14.67 17.1.68v.9l-17.9-.7-23.34 24.5 29.96 2.13c-.26.3-.5.6-.77.87l-30.05-2.12-16.57 17.38-.6.1.1-.9 28.32-29.7-4.24-18.17.8-.58z"/><path fill="#01898C" d="M110.88 118.35s32.6-11.8 47.9 5.76C144.8 169.57 86 154.96 86 154.96l24.88-36.6z"/><path fill="#00666A" d="M158.8 124.11c-.06.2-.12.36-.18.53l-45.25 12.52 20.7 15-.98.4-20.86-15.08-17.67 4.9.8-1.18 34.4-9.53 9.67-16.86 1 .14-9.4 16.38 27.4-7.57c.12.13.24.25.35.38z"/><path fill="#FFD247" d="M93.6 0l4.62 7.42 8.28 1.95-5.43 6.82.5 8.34-7.97-2.92-7.97 2.92.5-8.35-5.43-6.83L89 7.42z"/><path fill="#F7A605" d="M106.5 9.37l-8.28-1.95L93.7.17v21.5l7.87 2.87-.5-8.35z"/><path fill="#FFD247" d="M140.9 18.57l4.62 7.42 8.28 1.94-5.44 6.82.5 8.35-7.96-2.92-7.97 2.92.5-8.34-5.43-6.82 8.3-1.95z"/><path fill="#F7A605" d="M153.8 27.94L145.52 26 141 18.73v21.5l7.87 2.87-.5-8.34z"/><path fill="#FFD247" d="M44.56 18.57L49.18 26l8.28 1.94-5.44 6.82.5 8.35-7.96-2.92-7.97 2.92.5-8.34-5.44-6.82 8.3-1.95z"/><path fill="#F7A605" d="M57.46 27.94L49.18 26l-4.54-7.26.02 21.5 7.87 2.87-.5-8.34z"/><path fill="#FFD247" d="M12.9 63.62l4.6 7.42L25.8 73l-5.44 6.82.5 8.34-7.96-2.92-7.97 2.92.5-8.34L0 73l8.28-1.96z"/><path fill="#F7A605" d="M25.8 73l-8.3-1.96L13 63.8 13 85.3l7.87 2.86-.5-8.34z"/><path fill="#FFD247" d="M175.54 63.62l4.62 7.42 8.3 1.95-5.45 6.82.52 8.34-7.98-2.92-7.96 2.92.5-8.34-5.43-6.83 8.28-1.96z"/><path fill="#F7A605" d="M188.45 73l-8.3-1.96-4.52-7.24v21.5l7.9 2.86-.52-8.34z"/><path fill="#63C1C5" d="M118.04 117.97l-4.38-2.77 13.7-6.08-5.67-12.9c-2.63-5.5-9.4-9.94-15.85-9.95H77.7c-6.47 0-13.23 4.46-15.85 9.96l-5.65 12.9 13.67 6.07-4.4 2.75-2.4 20.95 28.7-.45 28.7.45-2.43-20.93z"/><path fill="#F8B68F" d="M127.35 109.12l2.82 9.32c2.06 6.8-.14 14.12-5.7 18.93l-12.82 10-4.1-11.2 7.1-6.6a7.2 7.2 0 0 0 1.74-8.26l-2.7-6.08 13.65-6.1zm-55.93 60.04l-11.4 1.55-2.2-2.4 1.1-4.38 10.97-1.58z"/><path fill="#01898C" d="M60 163.77l-11.8-1.43s-4.55-1.2-8.6-.54v10.72c2.02.2 4.05.2 6.07-.04l14.36-1.77-.16-.24a5.96 5.96 0 0 1 .14-6.7z"/><path fill="url(#b)" d="M33.55 166.53c.8-3.03 3.32-4.3 6.06-4.73v10.72c-3.54-.4-7.15-1.8-6.05-6z"/><path fill="#F8B68F" d="M53.63 164.55v4.6"/><path fill="#FFF" d="M53.04 164.55h1.18v4.6h-1.18z"/><path fill="#F8B68F" d="M50.72 164.55v4.6"/><path fill="#FFF" d="M50.13 164.55h1.17v4.6h-1.17z"/><path fill="#F8B68F" d="M56.34 109.12l-2.83 9.32c-2.05 6.8.15 14.12 5.7 18.93l12.8 10 4.12-11.2-7.1-6.6a7.2 7.2 0 0 1-1.74-8.26l2.7-6.08-13.64-6.1zm57 60.9l11.6.7 2.2-2.42-1.12-4.38-10.96-1.58z"/><path fill="#01898C" d="M144.9 161.73c-3.94-.5-8.14.6-8.14.6l-11.8 1.44a5.96 5.96 0 0 1 .14 6.7l-.17.24 14.36 1.78c1.84.2 3.7.24 5.57.1l.03-10.85z"/><path fill="url(#c)" d="M151.4 166.53c-.8-3.03-3.33-4.3-6.07-4.73v10.72c3.56-.4 7.16-1.8 6.06-6z"/><path fill="#F8B68F" d="M131.32 164.55v4.6"/><path fill="#FFF" d="M130.73 164.55h1.18v4.6h-1.17z"/><path fill="#F8B68F" d="M134.24 164.55v4.6"/><path fill="#FFF" d="M133.64 164.55h1.18v4.6h-1.18z"/><path fill="url(#d)" d="M70.06 122.77h47.33v28.32H70.05z"/><path fill="#CBB8CD" d="M70.06 149.9h47.33v2.37H70.05z"/><path fill="#FFF" d="M91.84 134.32a1.9 1.9 0 1 0 3.78 0 1.9 1.9 0 0 0-3.78 0z"/><path fill="#212B53" d="M151.27 143.55c9.45 16.84-85.77 27.18-85.77 27.18l-1.6-7.52s75.7-40.43 87.37-19.65z"/><path fill="#043C5E" d="M33.68 143.55c-8.03 17.55 86.56 28.07 86.56 28.07l.7-8.43s-77.74-40.43-87.26-19.65z"/><path fill="#F4A086" d="M96.75 86.2c-.88-2.64-2.47-10.5-2.47-10.5l-10.13 1.97v8.6s3.37 2.37 6.2 2.4c3.08.02 6.5-2.16 6.4-2.46z"/><path fill="#F8B68F" d="M96.75 61.74l-1.9-11.25-19.48 2.28 1.2 12.97s1.5 16.05 11.86 14.14c11.2-2.05 8.83-18.3 8.32-18.16z"/><path fill="#212B53" d="M101.3 60.2a7.7 7.7 0 0 1 .83-4.68c3.37-5.5-1.73-7.1-3.5-7.58-1.96-.53-2.6-3.6-5.22-4.56-4.02-1.5-6.3 2.12-8.47 2.4-2.17.27-4.34-2.06-6.87.35-2.54 2.4-1.45 4.66-2.1 5.96-.64 1.3-3.28-.9-5.2 3.18-1.46 3.1.15 4.9 2.13 5.96a8.64 8.64 0 0 0 7.43.17 33.5 33.5 0 0 0 7.8-4.73c.77-.62 6.7-1.03 7.2-.2 1.7 2.88 1.8 12.4 1.8 12.4l1.74-2.44a6.16 6.16 0 0 0 2.43-6.23z"/><path fill="#F8B68F" d="M94.92 63.14c-.52 1.35-.2 2.74.7 3.1.9.34 2.06-.48 2.58-1.84.52-1.35.2-2.74-.7-3.1-.9-.33-2.06.48-2.58 1.84z"/></g></svg>