<svg xmlns="http://www.w3.org/2000/svg" width="415" height="410"><defs><linearGradient id="a" x1="51.829%" x2="47.69%" y1="-1.203%" y2="114.277%"><stop offset="0%" stop-color="#E0F0EB"/><stop offset="100%" stop-color="#C0E4EF"/></linearGradient><linearGradient id="b" x1=".097%" x2="99.87%" y1="46.696%" y2="53.323%"><stop offset="0%" stop-color="#E0F0EB"/><stop offset="100%" stop-color="#C0E4EF"/></linearGradient></defs><g fill="none" transform="translate(0 17)"><path fill="#01898C" d="M357 292.63c1.22-1.1 2-7.37 1.6-14.4a61.25 61.25 0 0 0 15.8-8.42c4.54 4.18 9.77 8.1 12.73 7.35 6-1.5 15.28-15.57 15.4-18.2.07-1.67-3.92-6.84-9.36-11.56a61.57 61.57 0 0 0 5.47-16.87c6.17-.27 12.67-1.2 14.24-3.82 3.18-5.3-.2-21.8-2-23.75-1.1-1.2-7.33-2-14.34-1.6a61.22 61.22 0 0 0-8-16.28c4-4.43 7.6-9.4 6.9-12.24-1.52-6-15.58-15.28-18.2-15.4-1.56-.07-6.14 3.37-10.57 8.24a61.1 61.1 0 0 0-18-6.2c-.37-5.57-1.36-11-3.72-12.4-5.32-3.17-21.82.2-23.75 2-1.1 1-1.87 6.14-1.7 12.26a61.18 61.18 0 0 0-17.68 8.8c-4-3.42-8.2-6.2-10.75-5.56-6 1.5-15.28 15.57-15.4 18.2-.06 1.43 2.88 5.45 7.17 9.55a61.34 61.34 0 0 0-6 19c-5.24.42-10.16 1.42-11.5 3.66-3.18 5.3.2 21.8 2 23.75 1 1.1 6.15 1.87 12.3 1.7a61.4 61.4 0 0 0 9.23 17.13c-3.64 4.17-6.72 8.64-6 11.3 1.5 6 15.57 15.27 18.2 15.4 1.56.06 6.17-3.4 10.62-8.32a61.23 61.23 0 0 0 17.83 5.3c.32 5.9 1.28 11.87 3.78 13.37 5.25 3.18 21.7-.2 23.7-1.97zm-46.62-70.18a27.57 27.57 0 1 1 29.76 25.18 27.57 27.57 0 0 1-29.78-25.18h.02z"/><path fill="#FFF" d="M299.37 223.58c-1.8-21.6 14.25-40.55 35.84-42.35 21.6-1.8 40.56 14.25 42.36 35.84 1.8 21.6-14.25 40.55-35.84 42.35-21.58 1.77-40.53-14.26-42.35-35.84zm77.63-6.46c-1.77-21.28-20.46-37.1-41.75-35.32-21.28 1.77-37.1 20.46-35.32 41.74 1.77 21.28 20.46 37.1 41.74 35.33 21.27-1.8 37.08-20.47 35.33-41.75zM354.4 274.87v-.78c-26.24 8.07-54.47-3.98-66.8-28.5-12.32-24.53-5.14-54.37 17-70.6-.08-.24-.15-.5-.2-.75-20.74 15-28.95 41.96-20.08 65.95 8.87 24 32.64 39.15 58.14 37.05a57.64 57.64 0 0 0 11.93-2.38zm24.8-92.44a55.9 55.9 0 0 1 14.58 33.3c0 .24 0 .5.05.75l.7-.3v-.52a56.64 56.64 0 0 0-14.67-33.6l-.67.37z"/><path fill="#01898C" d="M302.75 108.86s41.43-54.4 89-47c20.12 54.26-37 85.9-37 85.9l-59.43 6.67 7.43-45.57z"/><path fill="#00666A" d="M340 75.12l5.58 29.8 45-43.2 1.13.16c.1.2.16.42.23.64l-24.1 23.14 28.1 2.34-.06.8-.06.7-29.4-2.5-40.16 38.6 49.14 5.72c-.44.46-.9.92-1.33 1.36L324.83 127l-28.52 27.38-1 .1.25-1.46 48.75-46.8L338.65 76c.45-.3.9-.6 1.35-.88z"/><path fill="#FFD247" d="M310.44 140.67s54.5-17 78.4 13c-26.36 73.73-122 45.42-122 45.42l43.6-58.43z"/><path fill="#FFF" d="M388.83 153.65l-.3.84-75.36 17.28L346.12 198l-1.65.6-33.18-26.34-29.44 6.74 1.4-1.87 57.3-13.13 17.12-27c.54.08 1.07.18 1.6.28l-16.64 26.26L388.3 153l.53.64z"/><path fill="#63C1C5" d="M363.42 60.14c-.4-1.1-4.22-3.35-8.9-5a43.1 43.1 0 0 0-1.1-12.55c3.93-1.82 7.9-4.13 8.23-6.25.67-4.3-5.9-14.18-7.56-15-1.08-.5-5.52.65-10.07 2.9a43.08 43.08 0 0 0-9.43-8.2c1.52-4.06 2.7-8.52 1.43-10.26-2.57-3.53-14.2-5.86-15.93-5.25-1.1.4-3.33 4.2-5 8.86a42.88 42.88 0 0 0-12.77.74c-1.77-3.8-4-7.5-6-7.82-4.3-.67-14.17 5.9-15 7.56-.47 1 .5 4.9 2.44 9.1A43 43 0 0 0 274.85 29c-3.7-1.3-7.5-2.14-9.05-1-3.52 2.57-5.85 14.2-5.24 15.93.35 1 3.46 2.9 7.48 4.46a43 43 0 0 0 .85 13.87c-3.33 1.65-6.3 3.6-6.57 5.43-.67 4.3 5.9 14.18 7.56 15 .9.44 4.32-.36 8.16-2a43 43 0 0 0 10.68 9.13c-1.17 3.5-1.87 7-.8 8.45 2.58 3.52 14.2 5.85 15.94 5.24 1-.35 2.9-3.48 4.47-7.5A43.18 43.18 0 0 0 322 94.67c1.7 3.5 3.76 6.73 5.66 7 4.3.67 14.18-5.9 15-7.56.48-1-.5-4.93-2.46-9.16a43.43 43.43 0 0 0 8.32-10.1c3.9 1.4 8 2.42 9.7 1.2 3.48-2.54 5.78-14.16 5.2-15.9zm-58.27 11a19.4 19.4 0 1 1 24.48-12.38c-3.37 10.15-14.32 15.67-24.48 12.33v.04z"/><path fill="#FFF" d="M302.87 78.53a27.6 27.6 0 1 1 34.84-17.6c-4.76 14.46-20.35 22.34-34.83 17.6zM320 26.43c-14.28-4.68-29.65 3.1-34.34 17.37-4.7 14.28 3.08 29.65 17.36 34.34 14.27 4.7 29.65-3.08 34.34-17.35 4.67-14.3-3.1-29.65-17.36-34.36zM351.2 56.94a5.7 5.7 0 0 1-.5-.24c-1.9 19.26-17.48 34.32-36.8 35.58-19.3 1.26-36.7-11.64-41.1-30.5l-.55-.06c4.35 19.13 21.92 32.3 41.5 31.12s35.44-16.38 37.45-35.9zM298.1 15.5a39.4 39.4 0 0 1 25.58-.32c.17.06.33.13.5.18v-.54a3.4 3.4 0 0 0-.34-.12A39.84 39.84 0 0 0 298 15c.06.16.08.33.1.5z"/><path fill="#00666A" d="M134.23 220.27s15.77-80.8-34.8-113.68C15.3 167.33 75.27 249.9 75.27 249.9l58.95-29.63z"/><path fill="#01898C" d="M99.42 106.6l-.86.62 5.82 96.78-47.9-36.9c-.15.67-.28 1.33-.4 2l48.44 37.34 1.68 27.94 1.76-.88-3.35-55.7 27.94-21.18c-.16-.64-.3-1.27-.48-1.9l-27.58 20.92-4.12-68.4-.94-.63zM110.84 205S72.74 132.24 15 131.5c-34.7 60.16 26.52 109.06 26.52 109.06l69 19.82.32-55.38z"/><path fill="#00666A" d="M73.52 157.54l-12.6 34.15-44.56-60.17H15l-.4.7 23.87 32.23-33.7-2.9c0 .33-.05.65-.08 1l-.08.85 35.3 3L79.68 220l-59.3-3.1c.43.63.86 1.26 1.3 1.87l59.4 3.1 28.24 38.14 1.16.34v-1.74l-48.28-65.18L75 158.85c-.5-.44-1-.85-1.48-1.3z"/><path fill="#FFD247" d="M95.36 241S34.3 210 0 240.65c16.37 92.53 135.22 78.23 135.22 78.23L95.36 241z"/><path fill="#FFF" d="M0 240.65c.06.36.13.7.2 1.06l85.7 35.6-44.26 24.35c.6.36 1.22.7 1.84 1.05L88 278.2l33.47 13.9-1.28-2.5-65.14-27.06-14.85-35.4h-2l14.45 34.4L.77 240l-.77.66z"/><path fill="url(#a)" d="M90.1 39.9v22.67h33.2V94h-1v229.82c.06 18.04 14.66 32.65 32.7 32.72l176.46.16V92.5c0-29.06-23.55-52.6-52.6-52.6H90.1z"/><path fill="#63C1C5" d="M67.46 83.63v-21c.03-13.16 10.66-23.82 23.82-23.9 17.97 0 32.6 14.48 32.72 32.45v12.45H67.46z"/><path fill="#01898C" d="M177 98.4h112.92v4.75h-112.9zm0 18.97h112.92v4.74h-112.9zm0 21.33h112.92v4.74h-112.9zm0 18.96h112.92v4.74h-112.9zm0 20.67h112.92v4.74h-112.9zm0 18.96h112.92v4.73h-112.9zm0 21.32h112.92v4.74h-112.9zm0 18.96h112.92v4.74h-112.9z"/><path fill="#FAB746" d="M99.96 210.05l-9.2-5.52-8.24 9.45 9.84 9.1 7.54-8.86z"/><path fill="#FFD247" d="M94.5 200.65l-14.3 16.8-11.73-12.04 12.58-13.66z"/><path fill="#FAB746" d="M209 211.58l9.37-5.25 7.95 9.67-10.1 8.83-7.27-9.07z"/><path fill="#FFD247" d="M214.74 202.34l13.82 17.18 12.05-11.7-12.18-14z"/><rect width="17.6" height="42.82" x="146.298" y="168.612" fill="#FAB746" rx="6.88" transform="rotate(.81 155.098 190.022)"/><circle cx="152.825" cy="273.181" r="84.39" fill="#043C5E" transform="rotate(-45 152.825 273.181)"/><path fill="#FFF" d="M230.8 264.53l-.23-.33c-.4-.58-.82-1.16-1.23-1.73 4.88 34.48-14.1 67.92-46.2 81.4-32.13 13.5-69.3 3.62-90.5-24A11.2 11.2 0 0 1 92 321c20.28 26.1 54.84 36.53 86.18 26.02 31.34-10.5 52.62-39.67 53.06-72.72a78.78 78.78 0 0 0-.44-9.77zm-129.6-47.4a76.37 76.37 0 0 1 53.3-20.6 77.28 77.28 0 0 1 8 .53c.06-.4.12-.78.2-1.17a77.75 77.75 0 0 0-61.7 19.8c.1.48.16.96.2 1.44z"/><circle cx="153.408" cy="273.202" r="70.13" fill="url(#b)" transform="rotate(-2.99 153.408 273.202)"/><path fill="#FFD247" d="M140.62 165.52L138.85 176l33.45-.13-1.12-9.72z"/><path fill="#043C5E" d="M127.2 281.4l66.83-45.08-57.8 60.8z"/><path fill="#212B53" d="M181.58 247.9c-3.8 2.8-7.5 5.78-11.37 8.52-8.08 5.7-16.33 11.23-24.28 17.14-5.38 4-10.25 9-15.34 13.73l5.64 9.82 49.6-52.12c-1.4.92-2.82 1.88-4.24 2.9z"/><path fill="#FFF" d="M145.6 272.54a6.1 6.1 0 1 0 6.17-6 6.1 6.1 0 0 0-6.18 6z"/><path fill="#043C5E" d="M149 272.6a2.66 2.66 0 1 0 5.32.07 2.66 2.66 0 0 0-5.32-.08zm4.3-52.34l.2-15.4 1.8.02-.23 15.4zm-1.73 121l.22-15.4 1.77.03-.22 15.4zm54.65-66.57l.02-1.8 15.4.22-.02 1.78zm-121-1.7l.02-1.77 15.4.22-.03 1.78zm107.7 41.5l.85-.8 7.07 7.26-.84.8zm-87.47-89.92l.84-.82 7.06 7.27-.84.82zm88.64 7.54l7.26-7.07.8.84-7.26 7.06zm-89.97 87.47l7.27-7.08.8.84-7.26 7.07zm101.53-70.64l9.28-4.1.47 1.08-9.26 4.1zM90.88 299.6l9.27-4.08.47 1.07-9.27 4.08zm84.83-79.9l4.08-9.3 1.07.47-4.06 9.3zm-50.27 115l4.06-9.3 1.07.48-4.07 9.3zm1.3-124.38l1.07-.45 3.88 9.38-1.08.44zm47.87 116l1.08-.44 3.87 9.38-1.1.44zm-83.82-80.2l.47-1.06 9.3 4.06-.48 1.07zm114.97 50.27l.47-1.08 9.3 4.06-.48 1.08z"/><path fill="#FFF" d="M184.05 271.15a8.25 8.25 0 1 0 15.46 5.77 8.25 8.25 0 0 0-15.45-5.77zM179 262a4.13 4.13 0 1 0 7.73 2.9A4.13 4.13 0 0 0 179 262z"/><path fill="#63C1C5" d="M339.88 356.7H164.53s35.44-7.28 23.63-51h186.67s11.8 51-34.95 51z"/><path fill="#F8B68F" d="M99.5 266.75s-7.44 14.34-6.92 17.5c.52 3.16 6.93 8.63 6.93 8.63l1-1.78-3.24-7.35 4.2-12.07-1.95-4.93z"/><path fill="#F4A086" d="M107.5 260.6l-.6 4.1h-3.66l-.38-6.3z"/><path fill="#63C1C5" d="M114.17 278.73v-11.58c-4.68-3.32-8-3-8-3a14.26 14.26 0 0 0-2.1-.1s-7.84-.57-6.4 11.8c3.12 10.53 1.63 15.17 1.63 15.17s8.16 3.33 12.72 1c-1.15-2.62 1-9.85 2.1-13.36l.05.07z"/><path fill="#212B53" d="M102 262.88s-3.1 1.82-3.1 4.7a6.94 6.94 0 0 0 1.5 4.1 5.92 5.92 0 0 1-.15 6.72l-.07.08a2.56 2.56 0 0 0-.5 2.17c.56 2.73 4.32 3.14 5.78.75a14.35 14.35 0 0 0 1.43-3.12 3.68 3.68 0 0 0-.78-4 1.66 1.66 0 0 1-.1-2.35c1.18-1.2 2.33-3 .87-4.6a14.14 14.14 0 0 1-3.17-5.2l-1.73.75z"/><path fill="#F4A086" d="M95.08 355.32l2.2.38c.44-2.72 7.24-15.58 7.8-22.26a150.88 150.88 0 0 1 2.33-15.67l-7.3-2.18s-1.85 0 .18 15.1c-4.57 6-5.8 19.64-5.2 24.62z"/><path fill="#F8B68F" d="M110.85 250.9l-6.75-.32-1.2 4.65v.2l.32.2a4.36 4.36 0 0 1 1.65 3.9 7.53 7.53 0 0 0 2.57 1 2.64 2.64 0 0 0 1.58 0c2.4-2.2 1.83-9.63 1.83-9.63z"/><path fill="#212B53" d="M102 261.9c1.75.2-1 0 1.75.2.08-1.5 4.84-5.33 5.74-6.1a5.7 5.7 0 0 0 2.13-4.4s-4.6-5-7.57-3.9a5.53 5.53 0 0 0-3.5 3.92c-.36 1.1-1.04 3 1.44 10.27z"/><path fill="#F8B68F" d="M100.47 310.1s1.72 10.34 4.1 21.4c-2.5 6.67 1.32 25.3 1.4 25.24.27-.27 1.6 1.35 1.6 1.35s2.76-16.46 3.38-23.87c.62-7.4 1.55-16.46 1.55-16.46l-12.03-7.67z"/><path fill="#043C5E" d="M105.65 355.7a2.4 2.4 0 0 0-.85 2c.2 1.13.46 3.77.46 3.77h1.07V359c0-.15 2.3 2.47 2.7 2.47h5.66s.36-1.66-3-2.2-6.05-3.57-6.05-3.57z"/><rect width="3.14" height="1.57" x="101.3" y="261.31" fill="#FFDB71" rx=".7"/><path fill="#00666A" d="M111.7 289.52s1.87 10.44 1.87 15.63c0 2.85-1.32 15-1.32 15s-10.86.32-13.06.32c-.3-8.6-3.5-14.25-3.5-21.13 0-4.84 4.28-9.07 4.28-9.07l11.73-.75z"/><path fill="#F8B68F" d="M132.4 277.4l-.48.15a3 3 0 0 0-2 2l-.12.38a51.17 51.17 0 0 1-9.06 2.1c-4.87-13.87-6.52-14.92-6.52-14.92A4.9 4.9 0 0 0 111 272c0 3.18 2.13 12.2 6.17 15a3.8 3.8 0 0 0 3.82.26c6.5-3.08 11.08-5.72 11.08-5.72l4.9-2.7-2.17-1.16a3.26 3.26 0 0 0-2.4-.27z"/><path fill="#F4A086" d="M97.52 353.82l-.15 2.35a2.22 2.22 0 0 0 .38 1.4 9.16 9.16 0 0 0 1.7 1.76c-1.63.53-3.13-1.32-3.9-2.54a3 3 0 0 1-.44-2l.3-1.86 2.12.88z"/><path fill="#212B53" d="M95.08 355.1s-1.44.14-1.68 1.24-.93 3.32-.93 3.32l.8.63 1.1-2.2a33 33 0 0 0 2.77 3.37h6.2s0-2.05-3.88-2.14c-3.57-.1-4.38-4.22-4.38-4.22z"/><path fill="#01898C" d="M334.94 274.17l-2 5.23a1.75 1.75 0 0 0 .56 2.05c.32.2.65.34 1 .47.36-.07 2.65-7.15 2.65-7.15a1.87 1.87 0 0 0-2.2-.6z"/><path fill="#212B53" d="M334.56 281.92l2.65-7.15.35.2-2.66 7.1z"/><path fill="#FFF" d="M334.15 276.24l-.17.47.9.2.18-.47zm-.38 1l-.17.48.9.18.18-.46z"/><path fill="#F8B68F" d="M332.75 272.93l2.2 1.24a1.4 1.4 0 0 1-.5 1.42l-.07.05L332 275l.75-2.07z"/><path fill="#212B53" d="M315.22 239.9a12.56 12.56 0 0 1 2.74 6.46c.37 2.74-.66 7.1-.77 10.5a8.83 8.83 0 0 0 3.77 7.52l11.78 8.55L332 275s-16.12-2.42-20.35-9.64c-4.23-7.22-5.23-23.55-5.23-23.55l8.8-1.9z"/><path fill="#F8B68F" d="M324.6 231l6.05 13.53a8.27 8.27 0 0 1 3.57 1.24 2.6 2.6 0 0 1 .38 2.33.83.83 0 0 1-1.37.48 5.9 5.9 0 0 0-2.08-1.32 2.5 2.5 0 0 1-1.94-1.3l-8.68-13.63 4.07-1.33zm-30.54-27.2l-3.1-2.65 2.4-13.1 3.74-1.9a1.08 1.08 0 0 0-1.33-.43 3.42 3.42 0 0 1-1.7.13s-.7-.87.62-1.45c.74-.5 1.24 0 3.4-.1 0-.32-2.85-1.1-2.85-1.1-.9-.3-3.15 1.46-3.15 1.46a1.66 1.66 0 0 0-.3.7l-.34 2.44s-4.8 13.2-4.8 14.6c0 1.4 2.68 3.33 2.68 3.33l4.72-1.93z"/><path fill="#043C5E" d="M310.74 241.25s1.87 2.25.75 7.47c-.73 3.34-3.87 7.53-6 10.43-1.53 2.07-1.56 4.68-1.1 7.2 1.72 9.6-1 21.32-1 21.32h-2.24s-3.36-17.18-4.35-29.24a34.9 34.9 0 0 1 3.86-19l10.08 1.82z"/><path fill="#F7A605" d="M291.03 184.8l7.03-1.02.28 1.86-7.04 1.03z"/><path fill="#FFF" d="M290.88 186.75l-.27-1.86 1-.15.27 1.86z"/><path fill="#212B53" d="M291 186.74c-.5.07-.95 0-1.07-.8-.12-.82.28-1 .8-1.08l.27 1.88z"/><path fill="#FFF" d="M298.33 185.66l1.36-.82-.1-.67-1.54-.36z"/><path fill="#043C5E" d="M299.7 184.84l.6-.42-.7-.25z"/><path fill="#F18813" d="M291.4 185.98l6.8-1 .16 1-6.8 1zM291.3 185.1l6.78-1 .15.98-6.8 1z"/><path fill="#00666A" d="M316.24 214.72c4 2.94 8.7 17.07 8.7 17.07l-3.5 2-5.72-7.86s-.56 9.1.8 16c-.6 2.62-3.58 2.32-8.4 1.4a23.74 23.74 0 0 1-8-3s-.2-12.6-.82-19.27c-.62-6.68.6-7.4-1.08-7.18-3.76-2.14-9.92-9-9.92-9l5.72-1.13 12.36 7.23a53.53 53.53 0 0 1 9.86 3.72z"/><path fill="#F8B68F" d="M309.26 198l-3 2.94a5.13 5.13 0 0 0-1.4 4.78l.34 1.57 4.06-9.3z"/><path fill="#043C5E" d="M312.86 196.9c7.2 0 4.14 13.84 4.14 13.84s-1.28 9-4.14 12.6c-2.48 3.12-7.38 2.18-9.7.68a8.92 8.92 0 0 0-3.75-1.38c-2-.24-4.3-1.1-4.3-4.65 0-3.35 4-5.93 6.62-7.78a8.7 8.7 0 0 0 3.4-5c.88-3.44 2.88-8.33 7.74-8.33z"/><path fill="#01898C" d="M303 290.15h-5.6c-.74.1-1.58.38-1.7 1.24a6.86 6.86 0 0 0-.1 1.13c.2.3 7.63 0 7.63 0a1.9 1.9 0 0 0-.23-2.38z"/><path fill="#043C5E" d="M295.63 292.53l7.62-.04-.07.38h-7.57z"/><path fill="#FFF" d="M300.8 290.15h-.5l.15.92h.5zm-1.08 0h-.5l.15.92h.5z"/><path fill="#F8B68F" d="M303.4 287.67l-.38 2.48a1.38 1.38 0 0 1-1.5.05l-.1-.05-.26-2.48h2.24zm-7.63-101.95a1.08 1.08 0 0 1 1.33.42l-2.5 1.27a.3.3 0 0 0-.1 0 11.7 11.7 0 0 0-1.63-.6 20.67 20.67 0 0 1 2.9-1.08z"/><path fill="#F59C42" d="M365.27 262.84l-.23-.05.02.1.15.06z"/><path fill="#E8375E" d="M364.87 264.87l-.3-.06.33-.04z"/><path fill="#00666A" d="M292.68 292.55l-22 68.37h-2.66l22-68.37zm24.22 0l-22 68.37h-2.65l22-68.37zM285.47 306.76v2.17h25.1l.43-2.2zm5.2-14.12v2.17h25.1l.42-2.17zm-9.78 28.4v2.2l25.1-.03.43-2.16zm-4.3 14.3v2.18h25.1l.44-2.18zm-4.44 14.86l-1 2.18 25.1-.02.42-2.17z"/><path fill="#043C5E" d="M333.62 292.55l22 68.37h-2.67l-22-68.37zm-24.23 0l22 68.37h-2.68l-22-68.37zM338.16 306.76v2.17h-25.1l-.43-2.2zm-5.2-14.12v2.17h-25.1l-.42-2.17zm9.78 28.4v2.2l-25.1-.03-.44-2.16zm4.3 14.3v2.18H321.9l-.43-2.18zm4.43 14.86l1 2.18-25.1-.02-.42-2.17z"/></g></svg>