<svg xmlns="http://www.w3.org/2000/svg" width="435" height="372"><defs><linearGradient id="a" x1=".246%" x2="100.432%" y1="53.493%" y2="46.932%"><stop offset="0%" stop-color="#E0F0EB"/><stop offset="100%" stop-color="#C0E4EF"/></linearGradient><linearGradient id="b" x1="106.956%" x2="33.699%" y1="104.033%" y2="15.449%"><stop offset="0%" stop-color="#C0E4EF"/><stop offset="33%" stop-color="#DFEFEB"/></linearGradient><linearGradient id="c" x1="106.074%" x2="22.268%" y1="100.119%" y2="16.586%"><stop offset="0%" stop-color="#E0F0EB"/><stop offset="100%" stop-color="#C0E4EF"/></linearGradient><linearGradient id="d" x1="113.275%" x2="18.089%" y1="53.885%" y2="9.719%"><stop offset="0%" stop-color="#C0E4EF"/><stop offset="33%" stop-color="#DFEFEB"/></linearGradient><linearGradient id="e" x1=".131%" y1="50.4%" y2="50.4%"><stop offset="0%" stop-color="#E0F0EB"/><stop offset="100%" stop-color="#C0E4EF"/></linearGradient><linearGradient id="f" x1="100%" x2=".794%" y1="50%" y2="50%"><stop offset="0%" stop-color="#E0F0EB"/><stop offset="100%" stop-color="#C0E4EF"/></linearGradient></defs><g fill="none"><path fill="url(#a)" d="M83.37 78c-12.2 53 97.56 56.28 142.84 55.43a161.38 161.38 0 0 0 37.48-5.17c38.55-10 123-35.63 112.15-66.58-14.05-39.92-60.4-10.33-60.4-10.33S322 20.7 245 3s-78.55 49.4-78.55 49.4S98.68 11.48 83.37 78z"/><path fill="#63C1C5" d="M329.9 148.82s-19.42-60.68 16.46-90.54c70.17 39.08 31.54 108 31.54 108l-48-17.46z"/><path fill="#FFF" d="M346.36 58.28c.25.13.5.27.73.4l4.28 74.96 33.48-32.73c.17.5.33 1 .48 1.5l-33.86 33.1 1.24 21.62-1.43-.52-2.48-43.12-23.4-13.76c.07-.5.14-1 .2-1.5l23.1 13.58-3-52.95.67-.57h-.04z"/><path fill="#01898C" d="M346.5 134.93s22.7-59.35 67-65.15C445.64 112.88 403 156 403 156l-51.24 21.48-5.27-42.55z"/><path fill="#00666A" d="M370.9 95.1l12.76 25.1 28.82-50.27c.34-.05.7-.1 1-.15l.37.5-15.4 26.93L424.1 92l.15.72.14.65-26.87 5.48-25.73 44.86 45.3-7.7-.82 1.56-45.38 7.77-18.26 31.87-.87.36-.17-1.37 31.23-54.5-12.94-25.46 1-1.14z"/><path fill="#11375B" d="M361.66 161.27s44.13-29.4 73.27-8.93c-4.2 72.6-96.86 72.38-96.86 72.38l23.6-63.45z"/><path fill="#00666A" d="M434.93 152.34l-.06.83-62.65 35.12 36.22 14.7c-.43.33-.87.65-1.3 1l-36.48-14.8-24.47 13.7.74-2 47.65-26.7 8.2-28.56 1.5-.17-8 27.76 38-21.27.65.44-.02-.06z"/><path fill="#63C1C5" d="M110.67 280.44s-8.3-63.18-53.48-74.9C10.36 270.8 74.67 316.67 74.67 316.67l36-36.23z"/><path fill="#FFF" d="M57.2 205.54l-.5.68 28.07 69.63-44.24-15.34c.06.53.13 1 .2 1.56l44.73 15.5 8.1 20.1 1.07-1.08-16.14-40.05 15.3-22.42c-.28-.4-.55-.84-.83-1.26L77.87 255 58 205.78c-.28-.08-.56-.17-.85-.24h.04z"/><path fill="#01898C" d="M89.74 274.93s-45.83-44-88.4-30.37c-10.7 52.7 46.26 73.55 46.26 73.55l55.5-2.4-13.36-40.77z"/><path fill="#00666A" d="M50.7 249.3l-.85 28.16-47.5-33.2c-.34.1-.68.2-1 .3-.05.2-.08.4-.12.62L26.66 263l-25.43 6.15c.05.24.1.48.17.72l.15.64L28.2 264l42.38 29.64L26.28 306c.5.36.96.72 1.43 1.06l44.37-12.36 30.1 21.05h.94l-.42-1.3-51.46-36 .86-28.52-1.38-.63z"/><path fill="#11375B" d="M87.24 305.23s-52.46-7.8-70.1 23.14c34.76 63.9 118.48 24.2 118.48 24.2l-48.38-47.34z"/><path fill="#00666A" d="M17.15 328.37c.13.25.27.5.4.73l71.65 5.07-26.5 28.75 1.6.32L91 334.3l28 2-1.55-1.5-54.48-3.87-19.6-22.35-1.43.5L61 330.77l-43.45-3.08c-.13.22-.27.44-.4.67z"/><circle cx="125.479" cy="277.051" r="77.32" fill="#FCBC00" transform="rotate(-3.79 125.48 277.051)"/><path fill="#FFD247" d="M119.74 336.22V322.6a59.2 59.2 0 0 1-26.83-7.18L98 305a50.86 50.86 0 0 0 24.4 6.17c12.45 0 20.87-5 20.87-13.2 0-7.9-6.84-12.76-19.82-17.07-17.9-5.73-28.93-12.33-28.93-24.8 0-11.92 10.34-20.95 26.47-23.1v-14.54h10.87v13.9c10.52.3 17.7 2.6 22.8 5l-5.25 11.2c-3.68-1.73-10-4-21.24-4-13.5 0-18.58 4-18.58 9.76 0 7.46 6.48 11.2 21.74 16.35 18.06 6 27.18 13.48 27.18 26.25 0 11.33-9.64 22.8-27.7 25.24v14.06h-11.08zM119.3 218.46h12.66v117.76H119.3z"/><path fill="#F7A605" d="M125.46 357.46c-44.4 0-80.4-36-80.4-80.4s36-80.4 80.4-80.4 80.4 36 80.4 80.4c-.05 44.38-36.02 80.35-80.4 80.4zm0-154.64c-30.03 0-57.1 18.08-68.6 45.82-11.5 27.74-5.14 59.68 16.1 80.9 21.22 21.25 53.16 27.6 80.9 16.1 27.74-11.48 45.83-38.55 45.83-68.58-.05-40.98-33.26-74.2-74.24-74.24z"/><path fill="#00666A" d="M146.26 116.32s78.14 99.3 96.06 133.68c38.45-24 60.93-43.8 60.93-43.8S224.18 70.64 210.8 70c-13.1 5.2-12.8 5.06-64.54 46.32z"/><path fill="url(#b)" d="M192.18 92.15c6 7.36 18.84 8.67 24.9 2.88 18.2 4.25 67.17 96 67.17 96l-.15.1c-7.53 4.9-9 16.05-4.05 23.23l-21.53 15.47c-5.57-7.4-15.76-8.5-23.32-3.57l-.2.15-70.23-94.9c.5-.25 1-.54 1.46-.85 7.53-4.92 10.3-17 5.4-24.2L192 91.84c.06.1.1.2.18.3z"/><path fill="#FFF" d="M215 146.17c-8.93 6.47-10.95 18.95-4.5 27.9s18.93 10.98 27.9 4.55 11-18.9 4.6-27.88a20 20 0 0 0-28-4.57z"/><path fill="#00666A" d="M211.13 168l3.48-1.75a17 17 0 0 1-1.6-7.75l3.33-.05a14.48 14.48 0 0 0 1.56 7c1.6 3.18 4 4.7 6.05 3.64 2.06-1.06 2.38-3.4 1.82-7.27-.83-5.32-.56-9 2.63-10.6 3.2-1.6 6.7 0 9.3 3.8l3.72-1.85 1.4 2.78-3.56 1.8a15.66 15.66 0 0 1 1.64 6.47l-3.53.1a13.87 13.87 0 0 0-1.7-6c-1.74-3.46-3.42-4.25-4.9-3.5-1.9 1-2 3.1-1.38 7.66.77 5.38 0 8.68-3.23 10.32-2.9 1.45-7.08.46-10-3.85l-3.6 1.8-1.44-2.77zM211.07 167.92l30.13-15.13 1.63 3.22-30.14 15.13z"/><path fill="#01898C" d="M203.8 131.05a4.8 4.8 0 1 0 6.68 1.1 4.8 4.8 0 0 0-6.7-1.1zm-8.48-11.78a4.8 4.8 0 1 0 5.6 7.77 4.8 4.8 0 0 0-5.6-7.77z"/><path fill="#043C5E" d="M251.78 197.83a4.8 4.8 0 1 0 5.6 7.78 4.8 4.8 0 0 0-5.6-7.77z"/><path fill="#01898C" d="M243.48 186.3a4.8 4.8 0 1 0 6.7 1.08 4.8 4.8 0 0 0-6.7-1.1zM46.2 122s93.8 84.54 117.34 115.4c33.83-30.16 52.62-53.5 52.62-53.5S115.26 63.7 101.94 65.3c-12 7.4-11.73 7.2-55.73 56.7z"/><path fill="url(#c)" d="M87.36 90.33c7.2 6.24 20 5.36 25-1.37 18.68 1.1 82.5 83.25 82.5 83.25l-.14.12c-6.6 6.12-6.1 17.34-.05 23.58l-18.6 18.9c-6.75-6.35-17-5.7-23.6.44l-.15.18L67 133.82c.45-.36.88-.73 1.3-1.1 6.6-6.14 7.26-18.54 1.2-24.78l17.62-17.87a3 3 0 0 0 .24.26z"/><circle cx="133.313" cy="153.75" r="20.04" fill="#FFF" transform="rotate(-14.2 133.313 153.75)"/><path fill="#00666A" d="M119.33 162.63l3-2.48a17.12 17.12 0 0 1-3.3-7.24l3.23-.78a14.52 14.52 0 0 0 3.08 6.52c2.27 2.75 4.9 3.7 6.72 2.2 1.8-1.5 1.57-3.84.16-7.5-2-5-2.55-8.63.2-10.9 2.77-2.27 6.52-1.53 9.94 1.64l3.2-2.64 2 2.4-3.08 2.54a15.67 15.67 0 0 1 3.05 6l-3.43.88a13.56 13.56 0 0 0-3-5.42c-2.46-3-4.27-3.38-5.54-2.33-1.65 1.37-1.3 3.48.35 7.8 2 5.08 2 8.45-.84 10.78-2.5 2.06-6.8 2-10.62-1.52l-3.1 2.56-2-2.5zM119.25 162.53l26.02-21.46 2.3 2.8-26 21.45z"/><path fill="#01898C" d="M105.4 126.7a4.8 4.8 0 1 0 6.77-.05 4.78 4.78 0 0 0-6.77.06zm-10.35-10.17a4.8 4.8 0 1 0 6.78-.06 4.8 4.8 0 0 0-6.78.06z"/><path fill="#043C5E" d="M164 184.38a4.8 4.8 0 1 0 6.84 6.7 4.8 4.8 0 0 0-6.84-6.7z"/><path fill="#01898C" d="M153.88 174.4a4.8 4.8 0 1 0 6.78 0 4.8 4.8 0 0 0-6.78 0z"/><path fill="#00666A" d="M45.58 230.74s123.1 28.46 158.6 44c15-42.78 20.07-72.3 20.07-72.3S77.7 146.3 66.83 154.18c-6.9 12.28-6.76 11.98-21.25 76.56z"/><path fill="url(#d)" d="M66.23 183.13c9.32 2 20.12-5 21.2-13.34C104.3 161.7 200 202.56 200 202.56v.16c-2.8 8.55 3.07 18.13 11.4 20.65l-7.1 25.56c-9-2.3-17.6 3.23-20.4 11.82a1.55 1.55 0 0 0-.07.23l-114.3-30c.23-.52.43-1.05.6-1.6 2.8-8.54-2.63-19.7-10.95-22.24l6.7-24.16c.12.05.23.1.35.13z"/><path fill="#FFF" d="M117.86 210.94c-2.94 10.64 3.3 21.64 13.94 24.6 10.63 2.94 21.64-3.28 24.6-13.9 2.97-10.65-3.24-21.67-13.87-24.64a20 20 0 0 0-24.67 13.94z"/><path fill="#00666A" d="M128.53 230.43l1.62-3.55a17 17 0 0 1-6.13-5.06l2.56-2.13a14.64 14.64 0 0 0 5.62 4.5c3.25 1.48 6 1.18 7-.95s-.26-4.14-3.13-6.8c-4-3.63-6.07-6.66-4.6-9.9 1.5-3.26 5.2-4.24 9.66-2.88l1.72-3.77 2.84 1.3-1.7 3.6a15.54 15.54 0 0 1 5.34 4l-2.7 2.3a14 14 0 0 0-5.05-3.58c-3.53-1.6-5.33-1.16-6 .33-.9 1.94.35 3.7 3.7 6.85 4 3.72 5.48 6.74 4 10.07-1.33 2.95-5.2 4.8-10.2 3.28l-1.68 3.66-2.9-1.27zM128.42 230.38l14-30.67 3.3 1.52-14 30.67z"/><path fill="#01898C" d="M99.64 206.2a4.8 4.8 0 1 0 5.9-3.35 4.8 4.8 0 0 0-5.9 3.34zm-13.98-3.9a4.8 4.8 0 1 0 9.23 2.56 4.8 4.8 0 0 0-9.24-2.55z"/><path fill="#043C5E" d="M178.88 228.18a4.8 4.8 0 1 0 5.9-3.33 4.78 4.78 0 0 0-5.9 3.33z"/><path fill="#01898C" d="M165.2 224.38a4.8 4.8 0 1 0 5.9-3.33 4.78 4.78 0 0 0-5.9 3.33z"/><path fill="#FFD247" d="M252.34 110.53c-74.4 42.75-62.73 62.64-66.26 91.32-3.53 28.68 1.4 79.1 92.38 73.38 90.97-5.7 115.13-64.14 99.73-110.58-14.8-44.57-63.8-64-63.8-64s-33.34 18.8-62.06 9.88zM252.34 110.53a12.16 12.16 0 0 0-3.53-14.64l-11.67-9.2s13.32-26.33 41.62-13.33c21.6 9.93 38.22-1.7 44.88-7.76a1.17 1.17 0 0 1 1.9 1.2A93.84 93.84 0 0 1 316 88.5c-2.55 4.34-4.1 8.84-1.57 12.2L285 116.8l-32.66-6.27z"/><path fill="#F7A605" d="M249.37 112.26s13.37 11.83 38.9 7.78c25.5-4.05 31.44-17 31.44-17l-6.57-6.2s-5 10.45-26.2 14.93c-17.1 3.63-33.5-5.45-33.5-5.45l-4.06 5.94zm-.16 65.97a37.86 37.86 0 1 0 31.47-43.32 37.85 37.85 0 0 0-31.46 43.33z"/><path fill="#FFD247" d="M288.37 201.35l-1-6.6a29.1 29.1 0 0 1-13.53-1.4l1.65-5.45a24.8 24.8 0 0 0 12.22 1.1c6-.95 9.7-4 9.08-8-.62-4-4.3-5.65-10.9-6.74-9.1-1.4-14.93-3.74-15.9-9.78-.9-5.75 3.4-10.92 11-13.2l-1.1-7 5.26-.83 1.07 6.72a27 27 0 0 1 11.4.68L296 156.7c-1.9-.56-5.15-1.18-10.58-.32-6.53 1-8.68 3.37-8.24 6.14.57 3.6 4 4.92 11.77 6.24 9.2 1.53 14.18 4.44 15.16 10.6.88 5.5-2.9 11.78-11.46 14.35l1.08 6.8-5.35.85zM279.13 144.45l6.1-.97 9.04 56.95-6.1.97z"/><path fill="#F7A605" d="M221.98 322.04h66.43v27.55H222z"/><path fill="#FFD247" d="M327.74 322.04h53.9v27.55h-53.9z"/><path fill="#FCBC00" d="M288.4 322.04h51.7v27.55h-51.7z"/><path fill="#F49742" d="M382.7 350.66H220.9V321h161.8v29.66zm-159.65-2.15h157.5v-25.4h-157.5v25.4z"/><path fill="#F7A605" d="M240 294.5h66.44v27.54H240z"/><path fill="#FFD247" d="M345.78 294.5h53.9v27.54h-53.9z"/><path fill="#FCBC00" d="M306.44 294.5h51.7v27.54h-51.7z"/><path fill="#F49742" d="M400.75 323.1h-161.8v-29.68h161.8v29.7zM241.1 321h157.5v-25.4H241.1V321z"/><path fill="#F7A605" d="M208.77 266.94h66.43v27.55h-66.43z"/><path fill="#FFD247" d="M314.53 266.94h53.9v27.55h-53.9z"/><path fill="#FCBC00" d="M275.2 266.94h51.7v27.55h-51.7z"/><path fill="#F49742" d="M369.5 295.56H207.7v-29.7h161.8v29.7zm-159.66-2.14h157.5V268h-157.5v25.42z"/><path fill="#F7A605" d="M220.2 239.4h66.42v27.54H220.2z"/><path fill="#FFD247" d="M325.95 239.4h53.9v27.54h-53.9z"/><path fill="#FCBC00" d="M286.6 239.4h51.7v27.54h-51.7z"/><path fill="#F49742" d="M380.92 268h-161.8v-29.7h161.8V268zm-159.66-2.15h157.5v-25.4h-157.5v25.4z"/><path fill="#F7A605" d="M234.43 211.85h66.43v27.55h-66.43z"/><path fill="#FFD247" d="M340.2 211.85h53.88v27.55h-53.9z"/><path fill="#FCBC00" d="M300.85 211.85h51.7v27.55h-51.7z"/><path fill="#F49742" d="M395.16 240.47h-161.8v-29.7h161.8v29.7zm-159.66-2.15H393v-25.4H235.5v25.4z"/><path fill="#01898C" d="M311.44 183.5s-42.38 0-97.06-15.06l-.72-.2c-61.25 20.36-100.5 15.26-100.5 15.26s-13.66 101 99.14 183.83l2.08-1.48c116.13-81.57 97.06-182.35 97.06-182.35z"/><path fill="#11375B" d="M122.17 190.14s35.7 4.63 91.4-13.88c50 13.88 88.9 13.88 88.9 13.88s17.58 92.75-90.14 167.14C109.77 282 122.17 190.14 122.17 190.14z"/><path fill="#212B53" d="M302.48 190.14s-38.54 0-88.26-13.7v179.5c105.6-74.16 88.26-165.8 88.26-165.8z"/><path fill="url(#e)" d="M229.6 241.4a16 16 0 1 0-24.47 13.5v22.56a8.5 8.5 0 0 0 17 0V254.9a16 16 0 0 0 7.48-13.5z"/><path fill="#FFF" d="M351.62 127.95l28.32-3.9-28.02-5.38-3.9-28.3-5.37 28-28.32 3.9 28.02 5.38 3.9 28.3zM98.3 319.2l20.34-2.8-20.13-3.88-2.8-20.34-3.85 20.13-20.35 2.8L91.63 319l2.8 20.34z"/><path fill="#00666A" d="M388.78 368.28l-47.4-147.32h2.7l47.4 147.32zm-24.5 0l-47.4-147.32h2.7l47.4 147.32zM356.36 259.2v2.2h-25.4l-.42-2.2zm-5.25-14.26v2.2l-25.38-.02-.43-2.2zm-4.33-14.28v2.2h-25.4l-.42-2.2zm14.22 43v2.2h-25.4l-.44-2.2zm4.33 14.47v2.2l-25.4-.02-.43-2.18zm4.5 15.02l1.02 2.2h-25.4l-.43-2.2zm4.75 15.03l1.03 2.2-25.4-.02-.42-2.2zm4.46 14.68l1.02 2.2-25.4-.02-.42-2.2zm3.7 15l1.02 2.2h-25.4l-.43-2.2z"/><path fill="#212B53" d="M177.8 366.3a13.46 13.46 0 0 0 5.52 2.55c.85.2 1.77-.07 1.77 1.32h-4.68l-3.9-.67v.67h-2.08s-.6-3.43.64-3.87h2.7z"/><path fill="#F8B68F" d="M177.55 363.84l.24 2.46a2.37 2.37 0 0 1-2.58.1l-.14-.1-.88-2.46h3.35z"/><path fill="#212B53" d="M159.13 366.3a13.37 13.37 0 0 0 5.53 2.55c.85.2 1.76-.07 1.76 1.32h-4.67l-3.88-.67v.67h-2.1s-.58-3.43.64-3.87h2.73z"/><path fill="#F8B68F" d="M158.9 363.84l.23 2.46a2.37 2.37 0 0 1-2.57.1l-.15-.1-.86-2.46h3.35z"/><path fill="#212B53" d="M170.35 302.17h5.37l1.9 62.26h-3.64l-10.66-50.68z"/><path fill="#043C5E" d="M172.1 302.17l-12.56 62.26h-4l1.64-62.26z"/><path fill="#212B53" d="M161.2 315.86l-1.22-.1a2.08 2.08 0 0 0-.56-1.45 3 3 0 0 0-2.22-.7 3.43 3.43 0 0 0-2.4.7 1.48 1.48 0 0 0-.45 1l-1.2.07a2.53 2.53 0 0 1 .75-1.86 4.45 4.45 0 0 1 3.3-1.08 4.18 4.18 0 0 1 3.12 1.1 3.26 3.26 0 0 1 .87 2.34zm-12.85 1.4h17.98v11.57h-17.98z"/><path fill="#FFDB71" d="M158 325.06c0 .7-.33.78-.75.78s-.75-.08-.75-.78v-2.46a46.43 46.43 0 0 1-8.14-1.46v9.13c0 .8.3 1.47.8 1.47h16.38c.48 0 .8-.66.8-1.47v-9.1a53.6 53.6 0 0 1-8.34 1.4v2.5z"/><path fill="#F7A605" d="M162.7 322a35 35 0 0 1-2.8 4.72 51.78 51.78 0 0 1-4.3 5.07h9.93c.48 0 .8-.67.8-1.48v-9.1c-1.7.34-2.67.56-3.63.78z"/><path fill="#63C1C5" d="M165.53 314.78h-16.4c-.47 0-.78.66-.78 1.47v4.43a28 28 0 0 0 8.14 1.38v-.6c0-.7.33-.78.74-.78s.75.08.75.78v.6a28.85 28.85 0 0 0 8.32-1.38v-4.43c0-.8-.32-1.47-.8-1.47z"/><path fill="#FFF" d="M157.9 324.32h-1.3a.32.32 0 0 1-.32-.33v-.77a.32.32 0 0 1 .32-.32h1.3a.33.33 0 0 1 .33.33v.77a.33.33 0 0 1-.33.32zm-1.3-1.32a.23.23 0 0 0-.23.23v.77a.23.23 0 0 0 .23.24h1.3a.23.23 0 0 0 .23-.24v-.76a.23.23 0 0 0-.23-.23h-1.3zM157.33 323.53a.08.08 0 0 1-.08.08.1.1 0 0 1-.08-.07v-1.06a.08.08 0 0 1 .08-.08.07.07 0 0 1 .08.07v1.06z"/><path fill="#F8B68F" d="M201.56 292.9a4.77 4.77 0 0 0 2.54.75c1.5.12 4.68-.53 4.07 1-1.43.77-3 1.85-3 1.85a5.24 5.24 0 0 1-3.48-.46l-2.8-1.7s-.24-1.56-.26-1.64l.63-.26a7.5 7.5 0 0 0 2.3.47zM202.08 293.57c.05.06.1.12.16.18-.2.08-.4.17-.57.26l-2.35.1c.05-.44.1-1.07.1-1.12l5.1-1.2s.4.52-.52 1.1a5.13 5.13 0 0 1-1.92.7zM158 309.4l1.7 3.73a7.4 7.4 0 0 1-1.12 2.84.8.8 0 0 1-.9.18 10.3 10.3 0 0 1-2.58-1.38.75.75 0 0 1-.1-.67l.5-1.63.07-3.82 2.43.76z"/><path fill="#F4A086" d="M167.98 264.75l.05 4.98-4.43-.24-.28-7.73z"/><path fill="#F8B68F" d="M168.72 265.2a2.64 2.64 0 0 0 1.5-.35c1.78-2.6-.26-9.6-.26-9.6l-2.85-1.2-3.62 2.26-.2 4.7a3.8 3.8 0 0 0 1.6 3.24 7.38 7.38 0 0 0 3.84.97z"/><path fill="#212B53" d="M164.48 259c.2-.8-.34-2.6.47-2.48.58.1 2.6.18 3.26.18 1.62 0 4.5-.63 4.5-3.08a2.24 2.24 0 0 0-1.5-2.16c-.75-.3-1.58.58-2.34.84a19.87 19.87 0 0 1-6.37.93 2.17 2.17 0 0 0-2.26 1.5c-.18 1.44.77 3.6 1.47 5a7.5 7.5 0 0 0 1.62 2.1l1.16-2.83z"/><path fill="#F8B68F" d="M162.4 259.15a1.2 1.2 0 0 1 1.5.13c.48.4.57 1 .22 1.28a1.2 1.2 0 0 1-1.5-.13c-.47-.43-.56-.97-.2-1.28z"/><path fill="#63C1C5" d="M165.68 268.16a12.77 12.77 0 0 0-5.2 1.07 12.54 12.54 0 0 0-7 8.66c-1.42 6-3.8 20.2 1.64 32.66a26.16 26.16 0 0 0 3.63 0l.58-29.37-.4 21h16.8v-13.56s.44 3.05 4.5 5.88c4.08 2.83 19.32.94 19.32.94v-3.18s-13.36-2.8-15.54-4.46c-2.17-1.65-6.87-13.56-6.87-13.56a10.74 10.74 0 0 0-7.36-5.7 20.1 20.1 0 0 0-4.1-.4z"/><path fill="#01898C" d="M159.14 302.3l.4-20.24h-.44l-.4 20.23z"/><path fill="#FFF" d="M163.5 266.75l-.26 1.63h5.1l-.34-1.63z"/><path fill="#F8B68F" d="M273.5 276.54l-5.25 9.87 5.78-.27.4-9.9z"/><path fill="#FFF" d="M281.73 272.16h-4.85l-2 31.3h8.68z"/><path fill="#043C5E" d="M290.62 364a2.56 2.56 0 0 1 1 2.14c-.22 1.2-.53 4-.53 4h-1.25v-2.62c0-.17-2.64 2.62-3.08 2.62h-6.5s-.45-1.77 3.38-2.34c3.83-.57 6.97-3.8 6.97-3.8z"/><path fill="#F8B68F" d="M287.8 362.85l-.9 2.3a2.93 2.93 0 0 1-1.2 1.52 11.48 11.48 0 0 1-3 1.38c1.78 1.5 4.6-.07 6.2-1.18a4 4 0 0 0 1.58-2.28l.37-1.75h-3.05z"/><path fill="#043C5E" d="M278.2 364a2.53 2.53 0 0 1 1 2.14c-.2 1.2-.52 4-.52 4h-1.23v-2.62c0-.17-2.64 2.62-3.1 2.62h-6.5s-.43-1.77 3.4-2.34c3.8-.57 6.96-3.8 6.96-3.8z"/><path fill="#F8B68F" d="M275.4 362.85l-.9 2.3a3 3 0 0 1-1.2 1.52c-.92.6-1.93 1.06-3 1.38 1.78 1.5 4.6-.07 6.2-1.18a4 4 0 0 0 1.58-2.28l.37-1.75h-3.06z"/><path fill="#212B53" d="M285.44 303.46s.82 4.67-3.86 27.67c3.78 12-2.28 32-2.28 32h-4.42l-3-59.7 13.56.03z"/><path fill="#FFDB71" d="M277.42 272.16l-1.57 38-5.2-2.23a55.64 55.64 0 0 0 2.1-17c.8-7.16-3.25-3.4 1.73-17.18 1.85-1.6 2.94-1.6 2.94-1.6z"/><path fill="#F4A086" d="M276.74 268.24l.6 3.2a2 2 0 0 0 3.1 1.35l2.13-1.35-3.82-8.62-2 5.4z"/><path fill="#11375B" d="M289.7 303.46s5.8 4.67 1.1 27.67c3.8 12 .45 32 .45 32h-4l-11.17-59.7 13.62.03z"/><path fill="#FFDB71" d="M281.73 269s4.9 2.74 6.4 5.2c1.53 2.46 1.96 7.66 2.1 12.4.2 6.5 3.33 23.6 3.33 23.6h-13.1l-.34-37.2 1.6-4z"/><path fill="#11375B" d="M272.08 258.64c3-.75 5.8 2.3 5.8 2.3l2.24 12 3.43-5.3s.2-7.18-3.1-11.94c-2.4-2.88-6.95-2.05-9.25.75a7.06 7.06 0 0 0-1.24 5c.14 2.33.8 15.66.8 15.66l6.8-5a31.3 31.3 0 0 0-.82-3.8c-1.12-4.3-6.65-9.16-4.66-9.66z"/><path fill="#F8B68F" d="M278.78 260.74a1.06 1.06 0 0 0-1.26.66.93.93 0 0 0 .32 1.3 1.07 1.07 0 0 0 1.26-.65.93.93 0 0 0-.32-1.3zM275.6 268.8a2.3 2.3 0 0 1-1.45.2c-2.58-1.88-3.5-9.34-3.5-9.34l2-2.17 4.06.9 2 4.43a4.07 4.07 0 0 1-.15 3.7 6.54 6.54 0 0 1-2.95 2.27z"/><path fill="#11375B" d="M271.4 258.48c.2 2.26 6.5 2.45 6.5 2.45l.32-3.06-3.66-2-2.9 1.75a2 2 0 0 0-.26.86z"/><path fill="#212B53" d="M271.54 258.92a4.28 4.28 0 0 1-.64 2.3l-.5-.9v-.78l.5-.6s.43-.86.64-.02z"/><path fill="#F8B68F" d="M286.8 274.15c6.34.74 3.35 17.1 2 23.8a2.84 2.84 0 0 1-3.63 2.17c-5.52-1.74-13.58-9-13.58-9l1.27-1.6 10.7 2.5s-4.12-18.73 3.23-17.87z"/><path fill="#FFF" d="M274.1 285.7l2.08 12.82a.6.6 0 0 1-.6.7h-8.2a.6.6 0 0 1-.6-.5l-2-12.83a.6.6 0 0 1 .6-.7h8.16a.6.6 0 0 1 .57.5z"/><path fill="#F8B68F" d="M265 291.38a5.73 5.73 0 0 1 .15-1.67c.2-1.2.14-3.1 1.38-2.15a6.15 6.15 0 0 1 1.3 3 3.58 3.58 0 0 1-.78 2.7l-.85 1.87a5.36 5.36 0 0 1-1.2-3.74z"/><path fill="url(#f)" d="M270.38 290.17a.63.63 0 1 1-1.26 0 .63.63 0 0 1 1.26 0z"/><path fill="#F59C42" d="M68.8 267.57l.26-.05-.02.12-.16.06z"/><path fill="#E8375E" d="M69.25 269.7l.3-.05-.34-.05z"/></g></svg>