<?xml version="1.0" encoding="UTF-8"?>
<svg width="205px" height="236px" viewBox="0 0 205 236" version="1.1" xmlns="http://www.w3.org/2000/svg" xmlns:xlink="http://www.w3.org/1999/xlink">
    <defs>
        <linearGradient x1="50%" y1="0%" x2="50%" y2="100%" id="linearGradient-1">
            <stop stop-color="#C6E6E7" offset="2.81114523%"></stop>
            <stop stop-color="#62C1C5" offset="100%"></stop>
        </linearGradient>
    </defs>
    <g id="design" stroke="none" stroke-width="1" fill="none" fill-rule="evenodd">
        <g id="writing-help-desktop" transform="translate(-1161.000000, -888.000000)" fill="url(#linearGradient-1)" fill-rule="nonzero">
            <g id="our-writers" transform="translate(-60.000000, 590.000000)">
                <g id="bubbles" transform="translate(1211.000000, 290.000000)">
                    <path d="M192.978884,255.129289 C273.774005,255.693923 270.473512,207.881898 270.473512,150.68355 C270.473512,93.4852013 250.177232,47.9957453 192.978884,47.9957453 C135.780535,47.9957453 89.4121119,94.3641684 89.4121119,151.562517 C89.4121119,208.760866 112.183763,254.564654 192.978884,255.129289 Z" id="Oval-8" transform="translate(179.952226, 151.564992) rotate(-118.000000) translate(-179.952226, -151.564992) "></path>
                    <path d="M58.9160236,93.0482959 C91.302494,93.2746279 89.979502,74.109328 89.979502,51.1815497 C89.979502,28.2537714 81.8438019,10.0194659 58.9160236,10.0194659 C35.9882453,10.0194659 17.4016086,28.6061026 17.4016086,51.5338809 C17.4016086,74.4616592 26.5295533,92.821964 58.9160236,93.0482959 Z" id="Oval-8-Copy-3" transform="translate(53.694329, 51.534873) rotate(-118.000000) translate(-53.694329, -51.534873) "></path>
                </g>
            </g>
        </g>
    </g>
</svg>